<svg xmlns="http://www.w3.org/2000/svg" viewBox="0 0 256 256" style="enable-background:new 0 0 256 256" xml:space="preserve"><circle style="fill:#040000" cx="128" cy="128" r="127"/><circle style="fill:#0c1433" cx="128" cy="128" r="127"/><path style="fill:#6fc8ef" d="m68.882 47.152 39.412 22.865-39.412 23.767z"/><path style="fill:#7acbeb" d="m147.706 46.286 39.412 22.866-39.412 23.767z"/><path style="fill:#6fc8ef" d="m68.882 93.796 39.412 22.865-39.412 23.768z"/><path style="fill:#24bbee" d="m147.706 92.919 39.412 22.865-39.412 23.768z"/><path style="fill:#009dd2" d="m147.706 139.464 39.412 22.865-39.412 23.768z"/><path style="fill:#0eabe1" d="m108.294 116.649 39.412 22.865-39.412 23.768z"/><path style="fill:#29bbee" d="m68.882 140.279 39.412 22.865-39.412 23.767z"/><path style="fill:#97d5ee" d="M108.294 116.649 68.882 93.784l39.412-23.768z"/><path style="fill:#4abfed" d="m187.118 115.781-39.412-22.865 39.412-23.767z"/><path style="fill:#0eade4" d="m187.118 162.414-39.412-22.865 39.412-23.768z"/><path style="fill:#4cc0ec" d="m147.706 139.552-39.412-22.865 39.412-23.768z"/><path style="fill:#4abfed" d="m108.294 163.282-39.412-22.865 39.412-23.768z"/><path style="fill:#04ade3" d="m108.294 209.714-39.412-22.865 39.412-23.768z"/><path style="fill:#06afe2" d="m187.118 209.074-39.412-22.865 39.412-23.767z"/></svg>