<?xml version="1.0" encoding="utf-8"?>
<!-- Generator: Adobe Illustrator 27.0.0, SVG Export Plug-In . SVG Version: 6.00 Build 0)  -->
<svg version="1.1" id="레이어_1" xmlns="http://www.w3.org/2000/svg" xmlns:xlink="http://www.w3.org/1999/xlink" x="0px"
	 y="0px" viewBox="0 0 500 500" style="enable-background:new 0 0 500 500;" xml:space="preserve">
<style type="text/css">
	.st0{fill:#FFFFFF;}
	.st1{display:none;}
	.st2{display:inline;}
	.st3{fill:none;stroke:#009FE8;stroke-width:59;stroke-linecap:square;stroke-linejoin:round;stroke-miterlimit:10;}
	.st4{fill:none;stroke:#009FE8;stroke-width:75;stroke-linecap:square;stroke-linejoin:round;stroke-miterlimit:10;}
	.st5{fill:#C39C61;}
	.st6{fill:#927647;}
	.st7{fill:#DFBE93;}
	.st8{fill:#EBD2E4;}
	.st9{fill:#B188A6;}
	.st10{fill:#ECCE54;}
	.st11{fill:#D97C8F;}
	.st12{fill:#9C2124;}
	.st13{opacity:0.44;fill:#FFFFFF;enable-background:new    ;}
	.st14{fill:#E78C27;}
	.st15{fill:#C6AC40;}
	.st16{fill:#D59CC0;}
	.st17{fill:#821C70;}
	.st18{fill:url(#SVGID_1_);}
	.st19{fill:url(#SVGID_00000109713194542655335580000002567966261085890983_);}
	.st20{fill:none;stroke:#040000;stroke-linecap:round;stroke-linejoin:round;stroke-miterlimit:10;}
	.st21{fill:none;stroke:#040000;stroke-linecap:round;stroke-linejoin:round;}
	.st22{fill:none;stroke:#040000;stroke-linecap:round;stroke-linejoin:round;stroke-dasharray:3.8765,3.8765;}
	.st23{fill:none;stroke:#040000;stroke-linecap:round;stroke-linejoin:round;stroke-dasharray:3.0235,3.0235;}
	.st24{fill:none;stroke:#040000;stroke-linecap:round;stroke-linejoin:round;stroke-dasharray:6.471,6.471;}
	.st25{fill:none;stroke:#040000;stroke-miterlimit:10;}
	.st26{fill:#FFFFFF;stroke:#040000;stroke-linecap:round;stroke-linejoin:round;stroke-miterlimit:10;}
	.st27{fill:#040000;}
	.st28{fill:none;stroke:#040000;stroke-linecap:round;stroke-miterlimit:10;}
	.st29{fill:#D59CC0;stroke:#040000;stroke-linecap:round;stroke-linejoin:round;stroke-miterlimit:10;}
	.st30{fill:#821C70;stroke:#040000;stroke-linecap:round;stroke-linejoin:round;stroke-miterlimit:10;}
	.st31{display:inline;fill:#ECB0CC;}
	.st32{display:inline;fill:none;stroke:#DB4B25;stroke-miterlimit:10;}
	.st33{display:inline;fill:#3A76B3;}
	.st34{display:inline;fill:#C55692;stroke:#040000;stroke-linecap:round;stroke-linejoin:round;stroke-miterlimit:10;}
	.st35{display:inline;fill:none;stroke:#040000;stroke-linecap:round;stroke-linejoin:round;stroke-miterlimit:10;}
	.st36{display:inline;fill:#295E91;}
	.st37{display:inline;fill:#E9984A;}
	.st38{display:inline;fill:none;stroke:#DB4B25;stroke-linecap:round;stroke-linejoin:round;stroke-miterlimit:10;}
	.st39{display:inline;fill:none;stroke:#040000;stroke-miterlimit:10;}
	.st40{display:inline;fill:#FFFFFF;stroke:#040000;stroke-linecap:round;stroke-linejoin:round;stroke-miterlimit:9.9991;}
	.st41{display:inline;fill:#FFFFFF;}
	.st42{display:inline;fill:#FFFFFF;stroke:#040000;stroke-linecap:round;stroke-linejoin:round;stroke-miterlimit:10;}
	.st43{display:inline;fill:#040000;}
	.st44{display:inline;fill:#696969;stroke:#040000;stroke-miterlimit:10;}
	.st45{display:inline;fill:#FFFFFF;stroke:#2C2A29;stroke-miterlimit:10;}
	.st46{display:inline;fill:none;stroke:#FFFFFF;stroke-miterlimit:10;}
	.st47{display:inline;fill:#2C2A29;}
	.st48{display:inline;fill:#656464;stroke:#040000;stroke-miterlimit:10;}
	.st49{display:inline;fill:#FFFFFF;stroke:#040000;stroke-miterlimit:10;}
	.st50{display:inline;fill:#829BC9;}
	.st51{display:inline;fill:#A9B8DA;}
	.st52{fill:#295FA3;}
	.st53{display:inline;fill:#FFFFFF;stroke:#040000;stroke-miterlimit:9.9997;}
	.st54{fill:#C4C5C4;stroke:#040000;stroke-miterlimit:10;}
	.st55{fill:#040000;stroke:#040000;stroke-miterlimit:10;}
	.st56{display:inline;fill:#BCBCBC;stroke:#040000;stroke-miterlimit:10;}
	.st57{fill:#009FE8;}
	.st58{fill:#833690;}
	.st59{fill:#6FB62D;}
	.st60{fill:#F29018;}
	.st61{fill:#C77AAF;stroke:#231815;stroke-width:0.5;stroke-miterlimit:10;}
	.st62{fill:#FFFDF5;stroke:#231815;stroke-width:0.5;stroke-miterlimit:10;}
	.st63{fill:#AEBCC3;}
	.st64{clip-path:url(#SVGID_00000034793298214693923020000015323721947965622418_);fill:#E5D6C7;}
	.st65{fill:none;stroke:#A3D9ED;stroke-width:0.5;stroke-miterlimit:10;}
	.st66{clip-path:url(#SVGID_00000183218541693033315940000012891626788185356705_);fill:#E5D6C7;}
	.st67{clip-path:url(#SVGID_00000114773077814249547850000009430631582836005786_);fill:#D3CEA3;}
	.st68{clip-path:url(#SVGID_00000033331756289289043100000014359426747000320166_);fill:#E5D6C7;}
	.st69{clip-path:url(#SVGID_00000103972367927721947140000007117810531969527701_);}
	
		.st70{clip-path:url(#SVGID_00000003097757021500362560000007071007138956279694_);fill:#231815;stroke:#231815;stroke-width:0.5;stroke-miterlimit:10;}
	.st71{fill:#231815;}
	.st72{fill:#EDB0CE;stroke:#231815;stroke-width:0.5;stroke-miterlimit:10;}
	.st73{clip-path:url(#SVGID_00000031193739230812334900000017280862738740975266_);}
	
		.st74{clip-path:url(#SVGID_00000030459831372451415200000010332161008821202318_);fill:#231815;stroke:#231815;stroke-width:0.5;stroke-miterlimit:10;}
	.st75{clip-path:url(#SVGID_00000092450106235673738090000000058663807027867270_);}
	.st76{clip-path:url(#SVGID_00000033346011320252319330000017085032238312636324_);fill:#D1E7EE;}
	.st77{clip-path:url(#SVGID_00000078007266621130666530000005903087994275290799_);fill:#D1E7EE;}
	.st78{clip-path:url(#SVGID_00000129907659127678377840000004220923992385459357_);fill:#DBDBD9;}
	.st79{clip-path:url(#SVGID_00000018195873035684032520000009267281805452554401_);fill:#D1E7EE;}
	.st80{clip-path:url(#SVGID_00000084526595912878741620000009408920675328883357_);}
	.st81{clip-path:url(#SVGID_00000108283037821532594990000016342513573824381112_);fill:#D1E7EE;}
	.st82{fill:#F7F3B5;stroke:#231815;stroke-width:0.5;stroke-miterlimit:10;}
	.st83{clip-path:url(#SVGID_00000145755122261137761640000014874476214329822910_);}
	.st84{clip-path:url(#SVGID_00000160884397921441868360000007907714898624601984_);fill:#D1E7EE;}
	.st85{clip-path:url(#SVGID_00000169558929622204482200000002157529318937978497_);}
	.st86{clip-path:url(#SVGID_00000052094187045164632880000009199918957555650214_);fill:#D1E7EE;}
</style>
<circle class="st0" cx="250" cy="250" r="247.5"/>
<g class="st1">
	<g class="st2">
		<polyline class="st3" points="180.4,162.3 119.5,88.1 119.5,337.5 		"/>
		<polyline class="st4" points="231.2,214 382.5,88.1 382.5,335.7 		"/>
	</g>
	<g class="st2">
		
			<image style="overflow:visible;opacity:0.5;" width="1593" height="1369" xlink:href="EA2D8057.png"  transform="matrix(0.24 0 0 0.24 58.6796 153.9595)">
		</image>
		<g>
			<g>
				<path class="st5" d="M318.8,186.8c-0.3-1.1-6.1-23.4-16-23.7c-17.6-0.5-21.3,5.1-22,6.7c-0.7,1.6-7-0.8-11,1.9s-6.6,8-6.6,8
					s-0.6,3.2,0,3.2c0.6,0.1,23.3,4.2,25.4,6.1c2.1,1.8,4.7,8.8,9.3,12.2c4.7,3.4,10.2,4.2,11.3,1.8c1.1-2.3,6.2,3.2,6.2,3.2
					l12.1,14.5l0.6,1.6c0,0,5.4-0.4,6.6-5.4c1.1-5-0.4-7.7-1.6-9.9c-1.2-2.1-8-10.9-8-10.9s4.8,2.7,6.3-1.3
					c1.6-3.9,2.7-7.8,0.5-10.3c-2.3-2.5-4.2-4-6-3.8c-1.8,0.2-4.1,1.5-4.1,1.5L318.8,186.8z"/>
				<path class="st6" d="M327.9,190.6c-2.2,1.3-5,1.3-7.3,0.2c3,4.5,6,9,8.9,13.5c0.9,1.4,1.8,3,1.9,4.7c0.1,1.7-1.1,3.5-2.8,3.6
					c-0.8,0-1.5-0.4-2.2-0.7c-4.4-2.6-7.5-6.9-10.2-11.3s-4.9-9-8.3-12.8c-4.9-5.7-11.8-9.3-18.5-12.8c4.9,3.2,9,7.3,12.3,12.1
					c3.4,4.9,5.9,10.5,9.7,15.1c3.1,3.6,7,6.4,10.3,9.9c1.7,1.8,3.2,3.7,4.6,5.7c1.1,1.6,2.4,3.3,4.2,3.3c1.8,0.1,3.1-1.5,3.8-3
					c1.7-3.7,0.8-8.2-1.2-11.8c-2-3.6-5.1-6.4-8.1-9.2c2.9-0.4,5.6-2.3,6.8-5c0.5-1.2,0.7-2.5,0.6-3.8c-0.1-0.6-0.2-3.2-1.1-3.1
					c-0.8,0.1-0.9,2.3-1.2,2.8C329.8,189,328.9,190,327.9,190.6z"/>
				<path class="st6" d="M283,174.7c-1.4-0.8-2.5-2-3.6-3.1c-1.1-1.1-2.6-2-4.2-2c-1.3,0-2.5,0.8-3.7,1.5c-3.3,2.1-6.8,4.4-8.2,8.1
					c-0.3,0.6-0.4,1.4,0,2c0.4,0.4,1,0.6,1.6,0.6c8.5,1,17.1,2.5,24.6,6.6c-1.4-5.5-3.8-10.7-7.1-15.3"/>
				<path class="st7" d="M303.3,166c-0.3-0.4-0.8-0.6-1.2-0.8c-2.5-1-5.6-1-8.1-0.6c-2.7,0.4-5.3,1.3-7.6,2.7
					c-0.6,0.4-1.3,0.9-1.3,1.7c0,0.8,0.8,1.4,1.6,1.5c0.8,0.1,1.6-0.2,2.3-0.5c4.2-1.5,8.6-2,13-1.8c0.4,0,0.9,0.1,1.3-0.1
					C303.9,167.7,303.8,166.6,303.3,166z"/>
				<path class="st8" d="M288.9,187.5c-11.6-4.9-24.7-6.5-40.9-6.2c-3.7,0.1-7.5,0.3-11.5,0.7c-81.8,8.1-96.3,95.4-94.9,163.6
					c-12.1,3.2-25.7,4.5-34.7-5.7c-2.1-2.4-4.2-4.8-6.3-7.2c-0.6-0.7-1.3-1.4-1.8-2.1c0.6,0.6,1.3,1.3,1.9,2
					c-5.3-6.6-11.8-14.5-21.2-11.9c-6.6,1.8-11.6,7.5-12.4,14.2c-0.4,3.7,0.2,7.6,1.1,11.3c1.6,6.6,4,13,7.4,19
					c7.1,12.4,18.1,22.8,31.5,28.1c6.5,2.5,8.2,2.4,13.3,2c-1.5,0.4-0.6,2.3-15.7,4.4c-0.1,0-7.7,1.6-14.2,0.8
					c-5.2-0.7-11.3,2.3-13.7,7.1c-2.3,4.5-2.3,10.1-0.1,14.6c0.6,1.1,1.3,2.1,2,3c2,2.5,6.6,5.1,8.2,5.8c3.5,1.6,7.2,3,10.9,4.1
					c7.5,2.3,15.2,3.6,23,4c15.6,0.9,31.4-1.6,46-7.1c1-0.4,2-0.8,3-1.2c-3.6,3.3-7.5,6.3-11.7,8.7c-1.8,1-3.7,2-5.4,3.2
					c-2,1.3-3.9,2.8-5.4,4.7c-3,3.6-4,8.6-3.2,13.1c1,4.9,4.2,9.2,8.7,11.3c5.5,2.7,11.7,1.4,17.4,0c12.5-3,25-6.7,36.4-12.4
					c12.8-6.4,23.3-15.5,31.9-27c2.1-2.8,4-5.7,5.8-8.7c1.9-3.1,3.6-6.3,5.1-9.5c1.6,3.2,3.2,6.4,5.1,9.5c1.8,3,3.7,5.9,5.8,8.7
					c8.5,11.5,19,20.6,31.9,27c11.5,5.8,24,9.4,36.4,12.4c5.7,1.4,11.9,2.7,17.4,0c4.4-2.3,7.7-6.5,8.7-11.3
					c0.9-4.5-0.2-9.5-3.2-13.1c-1.6-1.8-3.4-3.4-5.4-4.7c-1.8-1.1-3.6-2.2-5.4-3.2c-4.2-2.3-8.1-5.4-11.7-8.7c1,0.4,2,0.8,3,1.2
					c14.6,5.5,30.4,8,46,7.1c7.8-0.5,15.5-1.8,23-4c3.7-1.1,7.4-2.5,10.9-4.1c1.6-0.7,6.2-3.3,8.2-5.8c0.8-1,1.6-2,2-3
					c2.3-4.5,2.3-10.1-0.1-14.6c-2.5-4.8-7.1-7.5-12.4-8.1c-3.2-0.4-6.3,0.1-9.4,0.5c-0.1,0-0.1,0-0.1,0c-4.1,0.4-8.2,1-12.3,0.6
					c-4-0.4-8-1.1-12-1.8c-1.5-0.3-7.5-0.7-9-1.1c8.4,0,18.3-1.8,24.8-4.3c13.4-5.3,24.4-15.6,31.5-28.1c3.4-5.9,5.8-12.4,7.4-19
					c0.9-3.7,1.6-7.5,1.1-11.3c-0.8-6.8-7-12.7-13.5-14.5c-9.4-2.6-24.2,17.1-26.4,19.5c-9.8,11.2-27.1,7.9-40.2,4
					c1.6-23.6,4.1-105.7-42.4-143.3C304.7,205.6,295.8,201.3,288.9,187.5z"/>
				<path class="st9" d="M385.9,354.2c13.5-9.8,16.9-20.9,21.6-24.7c4.7-3.8,20-9.4,10.9-9c-20.3,1-28.3,35.7-47.5,27.1l-19.1-3.5
					c0,0,13.1-95.4-42.8-142.6c-0.6,0.6-1.4,1.1-2.5,1.1c-7.5-0.1-13.8-6.1-15.6-13.2c-2.5-1.3-5.1-2.5-7.8-3.7h-3.5
					c1.6,0.8,38.8,36.1,45.5,78.5c6.7,42.4,0.8,76.2-12.8,92.7c-13.6,16.5-98.8,31.6-137,16.8l-50.5,16.1c0,0-46.9-20.9-56.7-47
					c-2,3.9,5.8,48.1,52.2,52.7l19.7-6.1l28.9,27.7c0,0-59.1,25.4-89.2,9.5c0,0,54.3,33.3,106.1-7.1l34,13.8
					c0,0-12.9,27.9-63.9,40.4c0,0,52.2,2.8,93.3-53.9c-0.4,2.7,41,4.9,47.7,4.9c6.8,0,50.2,21,57.9,30.7c0,0,8.9-0.8-28.3-26.9
					c-7.3-5.1-14.8-12.1-16.5-13.1c-1.7-1,11.7-12.6,23.3-17.9c11.6-5.3-4.1,2.7,25.2,5.9c29.3,3.2,51.4-3.8,51.4-3.8
					s-40.1,5.2-51.8-9c-11.6-14.2,2.6-29.7,2.6-29.7S372.4,364,385.9,354.2z"/>
				<path class="st10" d="M141.8,336.6c0.6,62.2,211.3,60.8,210.7-1.6l1.2,0.1c2.3,0.2,4.1,2.3,4,4.6l-0.1,2.8
					c7.4,0.9,12.8,2.5,15.9,4.9c-10.7,0.4-18.2,48.1-7.4,50.5l-6.6-1.6c-17.3-7.5-41,26.6-30.1,34.7L314,422
					c-12.1-10.3-42.3,20.7-35.6,30.9c-0.8,1.2-9.8-4.5-19.5-17.7c-4.7-6.3-14.2-6.3-18.8,0.1c-7.8,10.5-16.8,17.1-20.8,18.9
					c8.2-13-32.4-40.5-43.5-28.9c0.3,0.5-12.5,8.7-11.8,8c9.9-9.9-23.9-50.1-33.8-40.2l-8.1,1.6c8.2-4.6,10.4-47.2,0.4-47.2
					c1.1-2.4,8.5-4.4,12.5-3l-0.1-2.8c-0.1-2.7,2-4.9,4.8-4.9L141.8,336.6z"/>
				<path class="st11" d="M432.4,340.6c-0.1-0.4-10.6-5.1-13.9,5.2c-3.3,10.4,8.1,12.6,8.1,12.6l2-3.9c0,0-8.2,0.2-6.6-6.7
					c1.1-4.6,4.5-4.9,6.3-4.6c1.8,0.4,3,1.5,3,1.5S432.6,341,432.4,340.6z"/>
				<path class="st11" d="M419,373.2c0-0.4-6.6-9.7-14.7-2.4c-8,7.3,0.7,14.9,0.7,14.9l3.7-2.5c0,0-7.2-3.9-2.4-9
					c3.2-3.5,6.3-2,7.8-0.8c1.4,1.3,1.8,2.7,1.8,2.7S419,373.6,419,373.2z"/>
				<path class="st11" d="M406.7,433.1c0.1-0.4-3-11.4-13-7.1c-10,4.3-4.9,12.8-4.9,12.8l3.8-1.3c0,0-4.4-4.2,1.9-7.5
					c4.2-2.2,6.7,0.1,7.5,1.8c0.9,1.6,0.8,3.2,0.8,3.2S406.6,433.5,406.7,433.1z"/>
				<path class="st11" d="M335.8,473.7c0.3-0.2,3.2-10.4-7.6-12.1c-10.8-1.7-10.9,8.2-10.9,8.2l3.9,0.9c0,0-1.4-5.9,5.6-5.4
					c4.7,0.4,5.6,3.7,5.5,5.6c-0.1,1.8-0.4,2-0.4,2S335.4,474,335.8,473.7z"/>
				<path class="st11" d="M295,452.1c-5.7-0.9-8.4,1.5-9.7,3.9c0.4,0.1,0.8,0.4,1.1,0.8c0.1,0.1,0.2,0.3,0.4,0.4
					c0.1,0.1,0.3,0.1,0.4,0.2c0.5,0.2,0.8,0.4,1.3,0.7c0.6-1.3,2-2.4,5.3-2.2c4.7,0.4,5.6,3.7,5.5,5.6c-0.1,1.8-0.4,2-0.4,2
					s3.6,0.9,3.9,0.6C302.8,463.9,305.7,453.8,295,452.1z"/>
				<path class="st11" d="M366,437.2c0,1-0.2,1.8-0.4,2.4c0.5,0,1.1,0,1.6,0c0.8-0.1,1.7-0.1,2.5-0.1h0.1c0.4-3,0.4-10.5-8.4-11.3
					c-10.8-1.1-10.4,9-10.4,9l3.9,0.6c0,0-1.8-5.8,5.2-5.7C364.9,432.1,366,435.3,366,437.2z"/>
				<path class="st11" d="M85,363.3c-2.9-9-11.1-6.6-13.4-5.5c0.8,1.1,1.3,2.3,1.6,3.7c0.5-0.3,1.1-0.6,1.9-0.7
					c1.8-0.4,5.2-0.1,6.3,4.6c0.8,3.2-0.7,4.9-2.4,5.8c0.4,0.3,0.6,0.6,0.8,0.9c0.5,0.7,1,1.4,1.4,2.2
					C84.1,372.4,86.9,369.1,85,363.3z"/>
				<path class="st11" d="M100,383c3,3.2,1.3,5.9-0.3,7.5c1.3,0.4,2.4,1.1,3.7,1.8c2-2.8,4.2-7.8-1.2-12.8c-8-7.3-14.4,1.6-14.4,1.9
					c0,0.4,3,2.7,3,2.7s0.1-0.6,1.5-1.9C93.6,381,96.7,379.5,100,383z"/>
				<path class="st11" d="M97.1,434.4c-0.1-0.4,3-11.4,13-7.1s7,12.3,7,12.3l-5.9-0.8c0,0,4.4-4.2-1.9-7.5c-4.2-2.2-6.7,0.1-7.5,1.8
					c-0.8,1.7-0.8,3.2-0.8,3.2S97.2,434.7,97.1,434.4z"/>
				<path class="st11" d="M193.1,466.4c0.7-0.4,1.3-0.8,2.1-1.2c0.6-0.3,1.8-0.7,2.3-0.7c-0.4-2.5-3-8.2-11.4-6.8
					c-10.7,1.7-7.9,11.8-7.6,12.1c0.3,0.2,3.9-0.6,3.9-0.6s-0.4-0.1-0.4-2c-0.1-1.8,0.8-5.1,5.5-5.6
					C193.3,461,193.3,465,193.1,466.4z"/>
				<path class="st11" d="M209.6,448.6c5.7-0.9,9,1.1,10.3,3.5c-0.4,0.1-1.3,0.8-1.6,1.1c-0.1,0.1-0.2,0.3-0.4,0.4
					c-0.1,0.1-0.3,0.1-0.4,0.2c-0.5,0.2-0.8,0.4-1.3,0.7c-0.6-1.3-2-2.4-5.3-2.2c-4.7,0.4-5.6,3.7-5.5,5.6c0.1,1.8,0.4,2,0.4,2
					s-3.5,2-3.7,1.8C201.9,461.5,198.9,450.2,209.6,448.6z"/>
				<path class="st11" d="M128,440.7c-0.3-0.2-2.7-11.5,8-12.5c10.8-1.1,10.4,9,10.4,9l-3.9,0.6c0,0,1.8-5.8-5.2-5.7
					c-4.7,0.1-5.8,3.3-5.8,5.2c0,1.8,0.8,3.2,0.8,3.2S128.2,441,128,440.7z"/>
				<path class="st12" d="M425.7,342.6c-1.9,0.7-3.5,2.4-3.9,4.4c-0.7,3,1.1,4.7,2.9,7.1c0.5,0.6,2.1,0.8,2.9,0.9
					c1.1,0.1,0.5,0.6,0.9-0.4c1.3-3,2.4-6.1,3-9.3C431.9,342.3,428,341.8,425.7,342.6z"/>
				<path class="st12" d="M409.8,372.9c-1.9,0.7-3.5,2.4-3.9,4.4c-0.4,1.3-0.1,2.7,0.6,3.9c0.5,1,1.5,2.9,2.8,2.5
					c0.5-0.1,0.8-0.5,1.3-0.8c1.7-1.6,3.4-3,4.8-4.8c0.4-0.6,0.8-1.1,1-1.8c0.1-0.8-0.4-1.3-0.8-2c-0.4-0.6-0.7-1-1.3-1.3
					C412.7,372.4,411.1,372.4,409.8,372.9z"/>
				<path class="st12" d="M402.8,433.3c-0.6-1.6-1.4-3.1-3-3.7c-1.1-0.4-3.2-0.2-4.3,0.1c-1,0.3-2.7,1.5-3.2,2.4
					c-1,1.7-0.3,3.4,0.4,5.2c2.7-0.4,5.5-0.9,8.1-1.6c0.6-0.2,1.4-0.4,1.8-1c0.6-0.8,0.3-2.1-0.2-3.1"/>
				<path class="st12" d="M357.9,431.8c-1.5,1-2.5,2.5-3,4.3c-0.2,0.7-0.3,1.6,0.3,2.1c0.4,0.3,0.8,0.4,1.3,0.4
					c2.7,0.2,5.4,0.5,8,0.7c0.4,0.1,0.8,0.1,1.2-0.1c0.8-0.4,1-1.6,0.8-2.5C365.9,432.7,361.8,429.3,357.9,431.8z"/>
				<path class="st12" d="M330.5,466.3c-1.3-1.3-3.5-1.9-5.3-1.3c-1.8,0.6-3.3,2-3.8,3.9c-0.1,0.2-0.1,0.5,0.1,0.7
					c0.1,0.1,0.4,0.2,0.6,0.3c2.7,0.8,5.5,1.6,8.3,2.5c0.4,0.1,0.8,0.2,1.3,0.1c0.4-0.2,0.6-0.6,0.6-1.1s0.1-1.2,0-1.6
					c-0.6-1.6-0.6-1.4-1.4-2.9"/>
				<path class="st12" d="M295.3,455.9c-1.6-0.6-3.2-0.8-4.9-0.3c-0.6,0.2-1.3,0.6-1.3,1.2c0,0.6,0.6,1.1,1.2,1.4
					c2.7,1.5,5.6,2.9,8.5,4.2c0.3-1.6-0.1-3.3-0.9-4.7c-0.8-1.3-2.3-2.4-3.9-2.7"/>
				<path class="st12" d="M208.5,452.9c-2.5,1.4-3.7,4.7-2.9,7.4c0.1,0.3,0.3,0.6,0.6,0.7c0.3,0.1,0.5-0.1,0.8-0.2
					c1.6-0.8,3.1-1.8,4.7-2.8c1.3-0.9,3.4-2,4.3-3.3c1-1.4-1.7-2.3-2.7-2.5C211.5,451.9,209.8,452.1,208.5,452.9z"/>
				<path class="st12" d="M186.2,461.5c-2.7,0.7-4.8,3.5-4.7,6.4c0,0.3,0.1,0.6,0.4,0.8c0.3,0.2,0.6,0.1,0.9,0.1
					c1.9-0.4,3.7-0.9,5.6-1.5c1.2-0.4,3.7-0.6,4.2-2C193.8,462.3,188.1,461,186.2,461.5z"/>
				<path class="st12" d="M142.8,436.2c-0.7-1.6-1.6-2-3.2-2.7c-1.6-0.8-3.6-0.8-5.2-0.1c-1.6,0.7-3,2.3-3.2,4
					c-0.1,0.6-0.1,1.3,0.4,1.7c0.4,0.3,0.9,0.4,1.4,0.4c3.7,0,6.8,0.2,10.2-1.4"/>
				<path class="st12" d="M111.2,432.9c-1.5-1.4-3.7-2-5.7-1.6c-2,0.4-3.7,1.9-4.5,3.8c-0.1,0.2-0.1,0.5,0,0.7
					c0.1,0.1,0.3,0.2,0.4,0.3c2.6,0.7,5.2,1.4,7.8,2c0.6,0.1,1.3,0.3,2,0.4c0.4,0.1,0.9,0.2,1.3,0c0.8-0.4,0.6-1.7,0.4-2.4
					C112.7,434.9,112.1,433.8,111.2,432.9z"/>
				<path class="st12" d="M102,384.7c-0.3-1.3-0.8-2.6-1.9-3.4c-1-0.7-2.3-0.8-3.5-0.6c-1.2,0.2-2.3,0.8-3.5,1.3
					c-0.4,0.1-0.7,0.4-1,0.6c-0.3,0.3-1,0.9-0.9,1.3s0.6,0.9,1,1.1c1.7,1.5,3.8,2.3,5.6,3.5c0.5,0.3,1,0.6,1.5,0.9
					c0.4,0.2,1,0.8,1.4,0.8c0.8,0,1.2-1.5,1.3-2.1C102.3,387,102.2,385.8,102,384.7z"/>
				<path class="st12" d="M78.8,361.4c1.6,0.9,2.6,2.7,2.7,4.5c0.1,1.8-0.8,3.7-2.3,4.7c-0.2,0.1-3.2-5-3.5-5.5
					c-0.6-1.2-3.2-4.1-0.8-4.4C76.1,360.6,77.8,360.8,78.8,361.4z"/>
				<path class="st13" d="M179.2,222.4c-13.9,16.6-22.3,37.4-26.6,58.6c-0.4,2.2-0.8,4.4-0.3,6.6c0.6,2.1,2.4,4.1,4.7,4.1
					c3.2,0,5-3.7,6-6.7c4.2-12.8,8.3-25.7,14.2-37.8c5.9-12.1,13.7-23.5,24.2-31.9c8.8-7,19.3-11.8,30.3-14.5c2.7-0.6,6-1.3,7.2-4.2
					c0.7-1.8,0.3-4.3-1.5-5.3c-1.7-0.9-4.1-0.5-5.9-0.2c-2.7,0.4-5.4,1.1-8,1.8c-11.1,3.1-21.4,8.7-30.4,15.9
					C188,212.8,183.4,217.4,179.2,222.4z"/>
				<path class="st13" d="M99.6,338.9c3.1,3.8,6.7,7.5,11.2,9.4c2.6,1.1,5.4,1.6,8.1,2.3c0.8,0.2,1.8,0.5,2.4,1.1
					c0.6,0.6,0.9,1.8,0.4,2.5c-0.4,0.4-0.8,0.6-1.3,0.7c-2.3,0.6-4.9,0.1-7.2-0.6c-5-1.6-9.5-4.4-13.5-7.9
					c-3.9-3.4-7.5-7.4-10.8-11.4c-1.3-1.6-3.3-3.9-3-6.3c0.4-2.7,2.6-2.1,4.2-0.8C93.6,331.1,96.5,335.2,99.6,338.9z"/>
				<path class="st14" d="M128.4,345.1c0.4,0.2,6,7,6.2,21.9c0.2,14.9-4.4,26.2-4.4,26.2l6.8-4.5c0,0,4.8-6.8,3.5-23.5
					c-1.2-15.7-7.8-20.7-7.8-20.7L128.4,345.1z"/>
				<path class="st14" d="M140.6,386.3c0.6-0.3,12.5-2.6,24.6,12.6c12.1,15.2,9.7,25.5,8.5,29l-3.9,2.7c0,0,5.1-12.9-8.6-28.5
					c0,0-10.2-13.2-24.7-12.8L140.6,386.3z"/>
				<path class="st14" d="M182.6,419.1c0,0,12.5-3.5,27.2,6.6c17.6,12.1,15.9,24.6,15.5,24.7c-0.4,0.1,4.4-4.4,4.4-4.4
					s-2.5-13.7-17.3-23.3c-14.7-9.5-21.4-8.9-26.2-8.6L182.6,419.1z"/>
				<path class="st14" d="M368.5,345.8c-0.5,0.1-7.1,5.8-10,20.4c-2.9,14.6-0.4,29.3-0.4,29.3l-5.3-1.9c0,0-3.9-14.2,0.3-30.3
					c4-15.2,11.3-19,11.3-19L368.5,345.8z"/>
				<path class="st14" d="M347.7,390.5c-0.5-0.2-9.9-2.7-20.6,10.2c-10.6,12.8-8.5,21.5-7.5,24.5l3.5,2.3c0,0-4.5-10.9,7.5-24
					c0,0,8.5-9.7,21.4-9.4L347.7,390.5z"/>
				<path class="st14" d="M308.8,415c0,0-12.3-1.9-25,9.5c-15.2,13.7-12.1,25.7-11.8,25.7s-4.7-3.7-4.7-3.7s0.8-13.6,13.6-24.5
					c12.8-10.9,19.2-11.1,23.8-11.3L308.8,415z"/>
				<path class="st15" d="M150,364c0,0,26.7,26.6,95.9,26.2c15.4-0.1,31-1.2,46.2-4.4c10.6-2.3,21-5.6,30.6-10.5
					c7.3-3.8,14-8.6,20.2-14.1c1.6-1.5,4.5-4,5.9-5.7c2-2.5,3.5-3.8,5.1-7.8c0.4-0.8,2.4-4.2,1.9-10.9c-0.1-0.9,2,0,1.8,5.2
					c1.6,0,8.1,1.6,6.8,2.5c-2,1.4-3.8,3.2-4.7,4.4c-1.4,2-2,2.7-3.1,4.9c-0.8,1.6-1.6,3.7-1.6,3.7c-1.4,1.1-3.5,1.6-4.7,3
					c-2,2.4-3.5,3.5-4.2,4.2c-0.8,0.8-2.6,3.2-3.5,3.9c-1.3,1.1-3.9,2.2-5.4,3.2c-3.2,2.5-8.2,4.2-11.8,6.1
					c-9.5,5.2-19.8,8.8-30.3,11.3c-14.9,3.5-30.3,4.8-45.7,4.8c-1.3,0-2.5,0-3.9,0C165.2,393.1,150,364,150,364z"/>
				<circle class="st16" cx="246.5" cy="335.1" r="19.1"/>
				<circle class="st17" cx="246.5" cy="335.1" r="8.7"/>
				<g>
					
						<radialGradient id="SVGID_1_" cx="-140.809" cy="-143.8465" r="11.2848" gradientTransform="matrix(1.3636 0 0 -0.8029 399.5515 213.3383)" gradientUnits="userSpaceOnUse">
						<stop  offset="8.311688e-02" style="stop-color:#CF85B0"/>
						<stop  offset="1" style="stop-color:#BC4187;stop-opacity:0"/>
					</radialGradient>
					<ellipse class="st18" cx="207.5" cy="328.9" rx="17.4" ry="11.1"/>
					<circle class="st0" cx="200.3" cy="323.4" r="2.9"/>
				</g>
				<g>
					
						<radialGradient id="SVGID_00000176747757525749353420000002165984345613874573_" cx="-83.8939" cy="-143.8465" r="11.2881" gradientTransform="matrix(1.3636 0 0 -0.8029 399.5515 213.3383)" gradientUnits="userSpaceOnUse">
						<stop  offset="8.311688e-02" style="stop-color:#CF85B0"/>
						<stop  offset="1" style="stop-color:#BC4187;stop-opacity:0"/>
					</radialGradient>
					
						<ellipse style="fill:url(#SVGID_00000176747757525749353420000002165984345613874573_);" cx="285.2" cy="328.9" rx="17.4" ry="11.1"/>
					<circle class="st0" cx="277.9" cy="323.4" r="2.9"/>
				</g>
				<path class="st20" d="M310.1,200.8c-3.6-8.8-10.2-16.4-17.3-22.6c-2.4-2.1-5-4-7.8-5.4c-1.5-0.7-3.5-1.7-5.1-2.1
					c-4.7-1.1-9.6-0.1-13.3,3.1c-2.6,2.3-4.4,4.9-3.5,8.1"/>
				<path class="st20" d="M319.7,187.3c-0.9-2.5,0.7-5.6,3.2-6.6c2.5-1,5.5-0.1,7.3,1.9c1.8,2,2.5,4.8,2.2,7.5
					c-0.2,1.9-1,3.9-2.4,5.2c-1.4,1.3-3.7,1.9-5.4,1.1"/>
				<g>
					<g>
						<path class="st21" d="M323.1,194.2c0.5,0.9,0.9,1.9,1.3,2.9"/>
						<path class="st22" d="M325.1,201.3c0.1,1.4-0.1,2.7-0.4,4.1c-0.1,0.7-0.4,1.5-0.7,2.2"/>
						<path class="st21" d="M322.7,209.4c-0.8,0.8-1.7,1.3-2.7,1.5"/>
					</g>
				</g>
				<g>
					<g>
						<path class="st21" d="M318.1,184.6c-1-0.3-2-0.4-3.1-0.4"/>
						<path class="st23" d="M311.7,184.8c-0.8,0.3-1.5,0.6-2.1,1.1c-0.8,0.6-1.5,1.1-2,1.6"/>
						<path class="st21" d="M306.5,188.9c-0.4,0.8-0.7,1.8-0.8,3"/>
					</g>
				</g>
				<g>
					<g>
						<path class="st21" d="M315.5,175.6c-0.6-0.8-1.4-1.6-2.3-2.3"/>
						<path class="st24" d="M306.9,170.3c-1.2-0.2-2.3-0.4-3.5-0.3c-2.4,0.1-4.7,0.8-6.8,2"/>
						<path class="st21" d="M293.8,174.3c-0.8,0.8-1.4,1.6-2,2.5"/>
					</g>
				</g>
				<path class="st20" d="M280.6,170c1.6-3.7,5.9-5.4,9.9-6.4c4.9-1.2,10.4-1.8,14.9,0.4c5.4,2.5,8.7,8.2,10.8,13.8
					c2,5.6,3.4,11.6,6.7,16.6c2.1,3.2,5,5.9,7.5,8.9c2.5,3,4.5,6.6,4.7,10.4c0.1,3.9-2.4,8-6.2,8.7"/>
				<path class="st20" d="M123.9,348.1c-6.8-0.2-11.6-2-16.6-7.6c-2.1-2.4-4.2-4.8-6.3-7.2c-0.6-0.7-1.3-1.4-1.8-2.1
					c0.6,0.6,1.3,1.3,1.9,2c-5.3-6.6-11.8-14.5-21.2-11.9c-6.6,1.8-11.6,7.5-12.4,14.2c-0.4,3.7,0.2,7.6,1.1,11.3
					c1.6,6.6,4,13,7.4,19c7.1,12.4,18.1,22.8,31.5,28.1c6.5,2.5,10.9,2.5,15.2,1.6c-1.5,0.4-2.5,2.7-17.6,4.8
					c-0.1,0-7.7,1.6-14.2,0.8c-5.2-0.7-11.3,2.3-13.7,7.1c-2.3,4.5-2.3,10.1-0.1,14.6c0.6,1.1,1.3,2.1,2,3c2,2.5,6.6,5.1,8.2,5.8
					c3.5,1.6,7.2,3,10.9,4.1c7.5,2.3,15.2,3.6,23,4c15.6,0.9,31.4-1.6,46-7.1c1-0.4,4.1-2.3,7.7-5.1c-5.1,6.4-12.2,10.2-16.4,12.6
					c-1.8,1-3.7,2-5.4,3.2c-2,1.3-3.9,2.8-5.4,4.7c-3,3.6-4,8.6-3.2,13.1c1,4.9,4.2,9.2,8.7,11.3c5.5,2.7,11.7,1.4,17.4,0
					c12.5-3,25-6.7,36.4-12.4c5.6-2.8,8.5-4.4,13.3-8.2"/>
				<path class="st20" d="M278,450.9c4.7,3.7,9,6.2,14.5,9c11.5,5.8,24,9.4,36.4,12.4c5.7,1.4,11.9,2.7,17.4,0
					c4.4-2.3,7.7-6.5,8.7-11.3c0.9-4.5-0.2-9.5-3.2-13.1c-1.6-1.8-3.4-3.4-5.4-4.7c-1.8-1.1-3.6-2.2-5.4-3.2
					c-4.2-2.3-8.1-5.4-11.7-8.7c1,0.4,2,0.8,3,1.2c14.6,5.5,30.4,8,46,7.1c7.8-0.5,15.5-1.8,23-4c3.7-1.1,7.4-2.5,10.9-4.1
					c1.6-0.7,6.2-3.3,8.2-5.8c0.8-1,1.6-2,2-3c2.3-4.5,2.3-10.1-0.1-14.6c-2.5-4.8-7.1-7.5-12.4-8.1c-3.2-0.4-6.3,0.1-9.4,0.5
					c-0.1,0-0.1,0-0.1,0c-4.1,0.4-8.2,1-12.3,0.6c-4-0.4-8-1.1-12-1.8c-1.5-0.3-3-0.7-4.5-1.1c7-0.4,13.8-1.8,20.4-4.3
					c13.4-5.3,24.4-15.6,31.5-28.1c3.4-5.9,5.8-12.4,7.4-19c0.9-3.7,1.6-7.5,1.1-11.3c-0.8-6.8-5.9-12.4-12.4-14.2
					c-9.4-2.6-13.5,2.7-18.9,9.2c0.6-0.6-6.6,7.6-8.6,10c-4.9,5.6-11.8,7.6-19,7.7"/>
				<path class="st20" d="M352.5,338.8c1.4-29,0.5-102.6-42.8-137.5c-4.7,5-13.5,0.6-20.4-13.2c-11.6-4.9-24.7-6.5-40.9-6.2
					c-3.7,0.1-7.5,0.3-11.5,0.7c-78,7.8-94.8,87.5-94.9,154.2"/>
				<path class="st20" d="M120.7,395.8c11.7-2.5,21.3-9.9,27.7-18.9"/>
				<path class="st20" d="M171.4,429.9c6.8-5.6,12.3-12.1,20.8-26.8"/>
				<path class="st20" d="M299.7,399.1c4.7,15.4,17.5,25.8,33.6,34"/>
				<path class="st20" d="M336,377.6c8,13.7,19.9,20.6,35.9,20.5"/>
				<path class="st20" d="M141.8,336.6c0.6,62.2,211.3,60.8,210.7-1.6l1.2,0.1c2.3,0.2,4.1,2.3,4,4.6l-0.1,2.8
					c7.4,0.9,12.8,2.5,15.9,4.9c-10.7,0.4-17.8,47.7-7,50l-7.5-1.3c-19.4-4.5-40.4,26.9-29.5,35l-15.5-9.2
					c-12.1-10.3-42.3,20.7-35.6,30.9c-0.8,1.2-9.4-4.3-18.8-16.8c-4.9-6.6-14.9-6.8-19.9-0.1c-7.7,10.2-16.4,16.6-20.4,18.3
					c8.2-13-30.5-40-42.4-29c-0.7,0.7-5.5,4.7-6.3,5.6c-1.1,1.2-7.9,4-7.2,3.3c9.9-9.9-17.6-48.4-33.6-41.6l-8.2,3.3
					c8.2-4.6,10.9-48.4,0.8-48.4c1.1-2.4,8.5-4.4,12.5-3l-0.1-2.8c-0.1-2.7,2-4.9,4.8-4.9L141.8,336.6z"/>
				<g>
					<path class="st25" d="M72,357.5c1.2-0.5,2.5-0.8,3.9-0.8c5.3,0,9.6,4.3,9.6,9.6c0,2.8-1.2,5.4-3.2,7.1"/>
					<path class="st25" d="M73.5,361.2c0.7-0.4,1.6-0.6,2.5-0.6c3.1,0,5.6,2.5,5.6,5.6c0,1.6-0.6,3-1.6,3.9"/>
				</g>
				<g>
					<path class="st25" d="M88.2,381.2c1.7-2.6,4.7-4.4,8-4.4c5.3,0,9.6,4.3,9.6,9.6c0,2-0.6,3.8-1.6,5.3"/>
					<path class="st25" d="M91,384.4c0.8-2,2.9-3.5,5.2-3.5c3.1,0,5.6,2.5,5.6,5.6c0,1.5-0.6,2.8-1.5,3.8"/>
				</g>
				<g>
					<path class="st25" d="M427.7,358.5c-0.1,0-0.2,0-0.3,0c-5.3,0-9.6-4.3-9.6-9.6s4.3-9.6,9.6-9.6c1.9,0,3.7,0.6,5.1,1.5"/>
					<path class="st25" d="M428.8,354.3c-0.5,0.1-0.9,0.2-1.5,0.2c-3.1,0-5.6-2.5-5.6-5.6c0-3.1,2.5-5.6,5.6-5.6
						c1.8,0,3.4,0.8,4.4,2.1"/>
				</g>
				<g>
					<path class="st25" d="M405.2,386.1c-2.5-1.8-4.1-4.7-4.1-7.9c0-5.3,4.3-9.6,9.6-9.6c3.5,0,6.5,1.8,8.2,4.6"/>
					<path class="st25" d="M409.1,383.6c-2.3-0.7-4-2.8-4-5.4c0-3.1,2.5-5.6,5.6-5.6c2.5,0,4.7,1.7,5.4,4"/>
				</g>
				<g>
					<path class="st25" d="M351.2,436.9c0-5.3,4.3-9.6,9.6-9.6s9.6,4.3,9.6,9.6c0,0.7-0.1,1.3-0.2,2"/>
					<path class="st25" d="M355.6,439c-0.3-0.6-0.4-1.3-0.4-2.1c0-3.1,2.5-5.6,5.6-5.6c3.1,0,5.6,2.5,5.6,5.6c0,0.8-0.1,1.6-0.4,2.2
						"/>
				</g>
				<g>
					<path class="st25" d="M284.5,456.3c1.6-3,4.8-5,8.5-5c5.3,0,9.3,4.3,9.6,9.6c0.1,1.1,0,2.2-0.1,3.2"/>
					<path class="st25" d="M288.3,457.8c1-1.5,2.7-2.5,4.7-2.5c3.1,0,5.6,2.5,5.6,5.6c0,0.8-0.2,1.7-0.6,2.4"/>
				</g>
				<g>
					<path class="st25" d="M316.9,469c0.8-4.5,4.7-8,9.5-8c5.3,0,9.6,4.3,9.6,9.6c0,0.7-0.1,1.5-0.2,2.1"/>
					<path class="st25" d="M320.7,470.7c0-0.1,0-0.1,0-0.1c0-3.1,2.5-5.6,5.6-5.6c3.1,0,5.6,2.5,5.6,5.6c0,0.9-0.2,1.8-0.6,2.5"/>
				</g>
				<g>
					<path class="st25" d="M388.6,438.8c-0.5-1.1-0.8-2.4-0.8-3.7c0-5.3,4.3-9.6,9.6-9.6c5.1,0,9.3,3.9,9.6,9"/>
					<path class="st25" d="M392.6,437.8c-0.5-0.8-0.8-1.8-0.8-2.8c0-3.1,2.5-5.6,5.6-5.6c2.9,0,5.3,2.2,5.6,4.9"/>
				</g>
				<g>
					<path class="st25" d="M96.5,435.1c0.8-4.9,5.2-8.7,10.4-8.7c5.9,0,10.6,4.7,10.6,10.6c0,0.8-0.1,1.5-0.2,2.3"/>
					<path class="st25" d="M100.7,436.3c0.4-3.1,3-5.5,6.1-5.5c3.5,0,6.2,2.7,6.2,6.2c0,0.5-0.1,0.9-0.1,1.3"/>
				</g>
				<g>
					<path class="st25" d="M126.5,440.1c-0.1-0.6-0.1-1.1-0.1-1.6c0-5.9,4.7-10.6,10.6-10.6c5.6,0,10.1,4.3,10.5,9.7"/>
					<path class="st25" d="M130.8,439.2c0-0.2-0.1-0.5-0.1-0.7c0-3.5,2.7-6.2,6.2-6.2c3.4,0,6.1,2.7,6.2,6.1"/>
				</g>
				<g>
					<path class="st25" d="M177.6,470.5c-0.4-1.1-0.6-2.2-0.6-3.4c0-5.9,4.7-10.6,10.6-10.6c4.4,0,8.3,2.9,9.9,6.7"/>
					<path class="st25" d="M181.8,469.4c-0.3-0.7-0.4-1.5-0.4-2.3c0-3.5,2.7-6.2,6.2-6.2c2.7,0,5,1.8,5.9,4.2"/>
				</g>
				<g>
					<path class="st25" d="M202,462.5c-0.6-1.3-1-2.8-1-4.4c0-5.9,4.7-10.6,10.6-10.6c3.3,0,6.2,1.5,8.2,3.9"/>
					<path class="st25" d="M206.1,460.9c-0.4-0.8-0.7-1.8-0.7-2.8c0-3.5,2.7-6.2,6.2-6.2c2,0,3.7,0.9,4.9,2.3"/>
				</g>
				<g>
					<path class="st26" d="M233,300.5c0-6.6-5.4-12.1-12.1-12.1s-12.1,5.4-12.1,12.1v10.6c5.6,7,14,8,24.2,4.7L233,300.5L233,300.5z
						"/>
				</g>
				<path class="st27" d="M233.6,304.3c0.5,12.5-3,13.3-6.7,13.3c-3.7,0-6.7-6-6.7-13.3c0-7.3,3-13.3,6.7-13.3
					C230.5,291,233.3,297,233.6,304.3z"/>
				<path class="st27" d="M206.3,295.8c0-0.2,6.1-11.5,15.4-11.2c9.4,0.3,13.7,9.7,13.7,9.7l-2.1,2.7c0,0-5.7-9.8-12.4-9
					c-6.7,0.9-13.1,9.4-13.1,9.4L206.3,295.8z"/>
				<path class="st27" d="M212.4,289.4c-0.3,0.1-5.4,0-4.7-5.8c-0.4,0.3-4.3,5.9,0.7,10.6L212.4,289.4z"/>
				<path class="st28" d="M213.4,269c4.7-4,13.7-3.5,15.6,1.2"/>
				<g>
					<path class="st26" d="M260,300.5c0-6.6,5.4-12.1,12.1-12.1s12.1,5.4,12.1,12.1v10.6c-5.6,7-14,8-24.2,4.7L260,300.5L260,300.5z
						"/>
				</g>
				<path class="st27" d="M259.4,304.3c-0.8,12.8,3,13.3,6.7,13.3c3.7,0,6.7-6,6.7-13.3c0-7.3-3-13.3-6.7-13.3
					C262.4,291,259.9,297,259.4,304.3z"/>
				<path class="st27" d="M286.7,295.8c0-0.2-6.1-11.5-15.4-11.2c-9.4,0.3-13.7,9.7-13.7,9.7l2.1,2.7c0,0,5.7-9.8,12.4-9
					c6.7,0.9,13.1,9.4,13.1,9.4L286.7,295.8z"/>
				<path class="st27" d="M280.6,289.4c0.3,0.1,5.4,0,4.7-5.8c0.4,0.3,4.3,5.9-0.7,10.6L280.6,289.4z"/>
				<path class="st28" d="M279.6,269c-4.7-4-13.7-3.5-15.6,1.2"/>
				<circle class="st29" cx="246.5" cy="335.1" r="19.1"/>
				<circle class="st30" cx="246.5" cy="335.1" r="8.7"/>
				<path class="st20" d="M278.5,171c4.4,2.5,6.3,6.2,8.4,10.8s3,7.6,5.6,11.9c2.7,4.3,7.3,9.1,12.3,9.6c1.2,0.1,2.5-0.1,3.4-1.1
					l1.7-1.3"/>
				<ellipse class="st0" cx="224.2" cy="298.6" rx="2.1" ry="3.6"/>
				<ellipse class="st0" cx="263.4" cy="299.5" rx="2.1" ry="3.6"/>
				<g class="st1">
					
						<rect x="23.2" y="278.4" transform="matrix(0.7071 -0.7071 0.7071 0.7071 -195.1192 130.1367)" class="st31" width="72.6" height="44.4"/>
					<line class="st32" x1="70.4" y1="299.7" x2="58.1" y2="309"/>
					<path class="st33" d="M56,279.1c-2.3,0.8-7.8,2.3-7.8,2.3l-4.6,4.6l0.1,7.1l4.5,3.3l13.8-4.2l1.6-3.3L56,279.1"/>
					<line class="st32" x1="72.1" y1="304.5" x2="59.7" y2="313.7"/>
					<polyline class="st34" points="59,307.6 60.6,314.7 57.5,316.7 39.6,312.6 37,299.3 38.9,296.6 46.5,299.3 57.1,305.2 					"/>
					<polygon class="st33" points="54.3,312.8 42.2,305 47.8,296.1 61.5,304 					"/>
					<path class="st35" d="M43.7,289.7l3.5,7.2c-0.5,0.2-4.9,8-4.9,8"/>
					<polyline class="st35" points="38.6,296.7 41.7,310.5 60.3,315 					"/>
					<polygon class="st36" points="61.3,303.8 49,295.9 63.4,291.6 68.3,294.9 					"/>
					<path class="st37" d="M50.2,296.6c0.1,0.1,9.2,5.4,9.2,5.4s2.4-1.9,2.2-3.7c0,0-0.8-0.6,0.1-0.8c0.8-0.3,2.3-1.3,1.7-2
						c-0.6-0.8-1.3-1.8-1.8-1.6c-0.4,0.1-0.8,0.2-1,0.3c-0.1,0.1-0.4,0-0.5-0.1l-0.2-0.6L50.2,296.6z"/>
					<line class="st32" x1="69.5" y1="295.2" x2="65.2" y2="298.6"/>
					<polyline class="st35" points="42.5,305.2 54.3,312.8 60.1,306.4 					"/>
					<path class="st38" d="M84.3,306.8l-2.6-0.6l-8.4,2.9c-0.4,0.4-15.6,9.4-15.6,9.4l-20.4-4.2L36,298.8l6.1-11.1"/>
					<path class="st38" d="M68.3,289.7c0.5-0.5,9.3-3.5,9.3-3.5l7,1.5"/>
					<line class="st38" x1="45.3" y1="302.4" x2="37.4" y2="314.3"/>
					<path class="st38" d="M51.2,304.3c-0.3,0.3-7.8,11.3-7.8,11.3"/>
					<line class="st38" x1="57.1" y1="305.2" x2="48.1" y2="316.2"/>
					<line class="st32" x1="64.5" y1="307.2" x2="52.6" y2="317.5"/>
					<line class="st38" x1="43.7" y1="293.1" x2="36.5" y2="304.8"/>
					<line class="st38" x1="44.4" y1="298" x2="37" y2="310"/>
					<line class="st39" x1="68.3" y1="289.7" x2="65.3" y2="292.7"/>
					<path class="st39" d="M63,291.3c0,0,4.9,3,4.8,3.2c-0.1,0.1-6,9.6-6,9.6l-12.7-7.5"/>
					<line class="st35" x1="61.8" y1="304.1" x2="60.6" y2="305.8"/>
					<line class="st38" x1="57.8" y1="318.6" x2="55.6" y2="322.7"/>
					
						<ellipse transform="matrix(0.9942 -0.1073 0.1073 0.9942 -34.5993 7.7765)" class="st40" cx="55" cy="325.4" rx="3.1" ry="2.5"/>
					
						<ellipse transform="matrix(0.9942 -0.1073 0.1073 0.9942 -32.5663 4.9591)" class="st40" cx="29.8" cy="305.1" rx="3.1" ry="2.5"/>
					<line class="st38" x1="37.7" y1="314.1" x2="35.5" y2="315.8"/>
					<line class="st38" x1="36.2" y1="301.3" x2="29.7" y2="305"/>
					<polygon class="st41" points="73.4,269.9 72.3,273.2 74.3,275.9 70.9,275.8 69,278.6 68,275.4 64.8,274.3 67.6,272.4 67.5,269 
						70.2,271 					"/>
					<polygon class="st41" points="83.3,293.6 82.3,296.9 84.3,299.5 80.9,299.5 79,302.3 78,299 74.7,298.1 77.5,296.1 77.4,292.7 
						80.2,294.7 					"/>
					<polygon class="st41" points="70.9,283.5 69.1,284.7 69.1,286.9 67.3,285.6 65.2,286.3 65.9,284.2 64.7,282.4 66.8,282.5 
						68.2,280.6 68.8,282.8 					"/>
					<polygon class="st41" points="47.3,322.4 46,324 46.5,325.9 44.6,325.2 43,326.3 43.1,324.4 41.5,323.2 43.4,322.6 44.1,320.7 
						45.2,322.4 					"/>
					<path class="st38" d="M63.4,288.3c0.3,0.1,4.9,1.3,4.9,1.3l5,19.5l-28.1-6.6l-2-15.4"/>
					<polyline class="st35" points="44.4,285.9 48,293.3 63.7,288.9 56.2,279.3 47.5,281.6 					"/>
					<polyline class="st35" points="63.7,288.9 62.1,292.2 47.3,296.9 48,293.3 					"/>
					
						<ellipse transform="matrix(0.9942 -0.1073 0.1073 0.9942 -33.964 5.3454)" class="st40" cx="32.7" cy="318.3" rx="3.1" ry="2.5"/>
					<path class="st42" d="M104.4,282.7L77.8,256c-2.4-2.4-6.3-2.4-8.6,0l-55.8,55.8c-2.4,2.4-2.4,6.3,0,8.6L40.1,347
						c2.4,2.4,6.3,2.4,8.6,0l55.8-55.8C106.8,289,106.8,285.1,104.4,282.7z M49.6,342l-31.2-31.2l51.3-51.3l31.2,31.2L49.6,342z"/>
					<line class="st35" x1="40.1" y1="312.2" x2="41.7" y2="310.5"/>
					<polygon class="st41" points="52.3,301.4 52.1,301.8 52.4,302.1 52,302.1 51.8,302.5 51.6,302.1 51.2,301.9 51.6,301.7 
						51.6,301.3 51.9,301.6 					"/>
					<polygon class="st41" points="47.1,304.9 47,305.2 47.2,305.6 46.8,305.6 46.5,306 46.4,305.5 46.1,305.4 46.3,305.2 
						46.3,304.8 46.7,305 					"/>
					<polygon class="st41" points="48.4,284.5 48.3,284.9 48.6,285.2 48.2,285.2 48,285.5 47.8,285.2 47.4,285 47.7,284.7 
						47.7,284.4 48.1,284.6 					"/>
					<polygon class="st41" points="59.6,287.3 59.4,287.6 59.7,288 59.3,288 59.1,288.3 59,287.9 58.5,287.8 58.9,287.6 58.9,287.1 
						59.2,287.3 					"/>
					<g class="st2">
						<path class="st0" d="M54.2,283.3c0.7-0.7,1.9-0.7,2.6,0c0.3,0.3,0.5,0.7,0.5,1.1c0.1-0.8-0.1-1.6-0.6-2.2
							c-0.9-0.9-2.5-0.9-3.4,0c-0.9,0.9-0.9,2.5,0,3.4c0.3,0.3,0.7,0.5,1.1,0.6c-0.1-0.1-0.1-0.1-0.2-0.2
							C53.5,285.2,53.5,284,54.2,283.3z"/>
					</g>
					<g class="st2">
						<path class="st0" d="M51.3,289.2c-0.6,0.8-1.7,1.1-2.5,0.6c-0.4-0.2-0.6-0.6-0.8-0.9c0,0.8,0.4,1.6,1.1,2
							c1.1,0.7,2.6,0.4,3.3-0.8s0.4-2.6-0.8-3.3c-0.4-0.2-0.8-0.4-1.2-0.4c0.1,0.1,0.2,0.1,0.3,0.1
							C51.6,287.2,51.8,288.3,51.3,289.2z"/>
					</g>
					<g class="st2">
						<path class="st0" d="M49.5,300.2c-0.4,0.6-1.1,0.8-1.8,0.4c-0.3-0.1-0.4-0.4-0.5-0.6c0,0.6,0.3,1.1,0.8,1.3
							c0.8,0.5,1.8,0.2,2.3-0.6c0.5-0.8,0.2-1.8-0.6-2.3c-0.3-0.1-0.6-0.2-0.8-0.2c0.1,0,0.1,0.1,0.2,0.1
							C49.7,298.8,49.9,299.5,49.5,300.2z"/>
					</g>
					<g class="st2">
						<path class="st0" d="M52.5,307.7c-0.4,0.6-1.1,0.8-1.8,0.4c-0.3-0.1-0.4-0.4-0.5-0.6c0,0.6,0.3,1.1,0.8,1.3
							c0.8,0.5,1.8,0.2,2.3-0.6c0.5-0.8,0.2-1.8-0.6-2.3c-0.3-0.1-0.6-0.2-0.8-0.2c0.1,0,0.1,0.1,0.2,0.1
							C52.6,306.3,52.8,307.1,52.5,307.7z"/>
					</g>
					<circle class="st43" cx="56.8" cy="297.5" r="0.4"/>
					<circle class="st43" cx="53.9" cy="296.3" r="0.4"/>
					<path class="st41" d="M55.8,298.3c-0.1-0.1-1.7-0.7-1.7-0.7s-0.1,0.8,0.6,1.1C55.4,299,55.8,298.3,55.8,298.3z"/>
					<path class="st35" d="M59.2,301.9c0.1-0.1-0.2,0.3-0.1,0.1c0.3-0.2,1.9-1,2.3-2.5c0.3-0.8,0.1-1.7,0.1-1.7
						c0.6-0.2,1.1-0.5,1.5-0.9c0.7-0.7,0.7-1.9,0-2.6s-1.5-1.2-2.7-0.5c-0.5-0.6-0.7-0.8-0.7-0.8"/>
					<path class="st41" d="M60.5,295.3c0,0,1-0.8,1.3,0.1c0.3,0.9-0.8,1.1-0.8,1.1L60.5,295.3z"/>
				</g>
				<g class="st1">
					<path class="st44" d="M86.4,453.8H25.5c-3.2,0-5.9-2.6-5.9-5.9v-37.9h72.6V448C92.3,451.2,89.7,453.8,86.4,453.8z"/>
					<path class="st45" d="M24.6,386.2L88,365.1l3.6,10.9l-68.9,22.9l-1.8-5.4C19.9,390.5,21.6,387.2,24.6,386.2z"/>
					<line class="st46" x1="28.1" y1="419.7" x2="85.8" y2="419.7"/>
					<line class="st46" x1="28.1" y1="431.4" x2="85.8" y2="431.4"/>
					<line class="st46" x1="28.1" y1="444.5" x2="85.8" y2="444.5"/>
					<line class="st46" x1="46.7" y1="419.7" x2="46.7" y2="444.5"/>
					<line class="st46" x1="69.8" y1="419.7" x2="69.8" y2="444.5"/>
					<line class="st46" x1="28.1" y1="426" x2="85.8" y2="426"/>
					<rect x="19.7" y="398.6" class="st45" width="72.6" height="11.4"/>
					<polygon class="st47" points="28.8,410.3 23,410.3 29.5,398.2 35.3,398.2 					"/>
					<polygon class="st47" points="42.8,410.3 37,410.3 43.5,398.2 49.3,398.2 					"/>
					<polygon class="st47" points="56.1,410.3 50.3,410.3 56.8,398.2 62.5,398.2 					"/>
					<polygon class="st47" points="70.1,410.3 64.3,410.3 70.8,398.2 76.6,398.2 					"/>
					<polygon class="st47" points="83.6,410.3 77.8,410.3 84.3,398.2 90.1,398.2 					"/>
					<polygon class="st47" points="33.7,395.6 28.2,397.4 30.5,383.8 36,382 					"/>
					<polygon class="st47" points="47,391.2 41.5,393 43.8,379.5 49.3,377.6 					"/>
					<polygon class="st47" points="59.6,387 54.1,388.8 56.4,375.2 61.9,373.4 					"/>
					<polygon class="st47" points="72.9,382.6 67.4,384.4 69.7,370.8 75.2,369 					"/>
					<polygon class="st47" points="85.7,378.3 80.2,380.1 82.6,366.6 88.1,364.7 					"/>
					<path class="st48" d="M27.6,411.1H19v-24.5h8.6c2.2,2.2,3.4,3.4,5.6,5.6v13.4C31,407.7,29.8,409,27.6,411.1z"/>
					<circle class="st49" cx="23.3" cy="392.9" r="2"/>
					<circle class="st49" cx="23.3" cy="405.3" r="2"/>
				</g>
				<g class="st1">
					<path class="st50" d="M464.6,425.2L433,473.4c-1.3,2-4.1,2.6-6.2,1.3L405,460.4c-2-1.3-2.6-4.1-1.3-6.2l31.6-48.3
						c1.3-2,4.1-2.6,6.2-1.3l21.8,14.3C465.4,420.3,466,423,464.6,425.2z"/>
					<path class="st50" d="M475.7,408.2l-6.2,9.4c-1.3,2-4.1,2.6-6.2,1.3l-21.8-14.3c-2-1.3-2.6-4.1-1.3-6.2l6.2-9.4
						c1.3-2,4.1-2.6,6.2-1.3l21.8,14.3C476.5,403.3,477,406.1,475.7,408.2z"/>
					
						<rect x="396" y="421.8" transform="matrix(0.5481 -0.8364 0.8364 0.5481 -161.9165 562.3336)" class="st51" width="86.9" height="18.5"/>
					<path class="st35" d="M464.6,425.2L433,473.4c-1.3,2-4.1,2.6-6.2,1.3L405,460.4c-2-1.3-2.6-4.1-1.3-6.2l31.6-48.3
						c1.3-2,4.1-2.6,6.2-1.3l21.8,14.3C465.4,420.3,466,423,464.6,425.2z"/>
					<path class="st35" d="M475.7,408.2l-6.2,9.4c-1.3,2-4.1,2.6-6.2,1.3l-21.8-14.3c-2-1.3-2.6-4.1-1.3-6.2l6.2-9.4
						c1.3-2,4.1-2.6,6.2-1.3l21.8,14.3C476.5,403.3,477,406.1,475.7,408.2z"/>
					<g class="st2">
						<g>
							<path class="st0" d="M437.6,439l-10.2,15.5l-5.9,6.9c-0.7,1.1-1.7,0.4-1.1-0.7l3.9-8.1l10.2-15.6
								C437.4,433,440.4,434.9,437.6,439z"/>
						</g>
						<g>
							<polygon class="st0" points="424.8,462.7 424.4,463.4 421.1,460.8 417.7,459 418.1,458.4 422.3,459 							"/>
						</g>
						<g>
							<polygon class="st0" points="433,442.9 426.4,442.1 426.6,441.9 425.3,441 424.7,441.9 421.7,441.6 422,441.1 420.7,440.2 
								419.9,441.4 416.4,440.9 415.6,442.1 425.4,446.2 429.2,448.7 							"/>
						</g>
						<g>
							<polygon class="st0" points="433,442.9 436.4,448.6 436.5,448.3 437.8,449.2 437.2,450.1 438.8,452.7 439.1,452.2 
								440.4,453.1 439.7,454.3 441.5,457.4 440.7,458.6 433,451.2 429.2,448.7 							"/>
						</g>
						<g>
							<path class="st52" d="M437.8,438.3l-0.4-0.3c0.4-0.6,0.4-1.3-0.1-1.6c-0.4-0.3-1.1,0-1.6,0.6l-0.4-0.3
								c0.6-0.8,1.6-1.2,2.2-0.8C438.3,436.4,438.4,437.5,437.8,438.3z"/>
						</g>
						<g>
							
								<rect x="436.2" y="435.5" transform="matrix(0.9704 -0.2417 0.2417 0.9704 -92.5417 118.4084)" class="st0" width="0.3" height="1.8"/>
						</g>
						<g>
							
								<rect x="436.6" y="437" transform="matrix(0.9862 -0.1657 0.1657 0.9862 -66.3851 78.5346)" class="st0" width="1.8" height="0.3"/>
						</g>
					</g>
					
						<rect x="446.9" y="427.5" transform="matrix(0.5481 -0.8364 0.8364 0.5481 -153.5783 575.9255)" class="st53" width="18.7" height="5.1"/>
					<line class="st39" x1="449.5" y1="435.7" x2="453.8" y2="438.5"/>
					<line class="st39" x1="449.8" y1="435.2" x2="454.1" y2="438.1"/>
					<line class="st39" x1="450.6" y1="434.1" x2="454.9" y2="436.9"/>
					<line class="st39" x1="451.3" y1="433" x2="455.6" y2="435.8"/>
					<line class="st39" x1="452" y1="431.8" x2="456.3" y2="434.7"/>
					<line class="st39" x1="451.7" y1="432.3" x2="456" y2="435.1"/>
					<line class="st39" x1="452.8" y1="430.6" x2="457.1" y2="433.4"/>
					<line class="st39" x1="455.2" y1="427.1" x2="459.5" y2="429.9"/>
					<line class="st39" x1="456" y1="425.9" x2="460.3" y2="428.7"/>
					<line class="st39" x1="456.4" y1="425.2" x2="460.7" y2="428"/>
					<line class="st39" x1="457.1" y1="424.1" x2="461.4" y2="426.9"/>
					<line class="st39" x1="457.4" y1="423.7" x2="461.7" y2="426.5"/>
					<line class="st39" x1="457.7" y1="423.2" x2="462" y2="426"/>
					<line class="st39" x1="458.3" y1="422.3" x2="462.6" y2="425.2"/>
					<line class="st39" x1="454" y1="428.8" x2="458.3" y2="431.7"/>
					<line class="st39" x1="454.4" y1="428.3" x2="458.7" y2="431.1"/>
					<line class="st39" x1="454.8" y1="427.6" x2="459.1" y2="430.4"/>
					<line class="st39" x1="453.3" y1="429.9" x2="457.6" y2="432.8"/>
					
						<rect x="468.5" y="404.2" transform="matrix(0.5481 -0.8364 0.8364 0.5481 -127.2723 577.9681)" class="st53" width="5.4" height="5.1"/>
					
						<rect x="468.7" y="407" transform="matrix(0.5481 -0.8364 0.8364 0.5481 -128.7019 576.2688)" class="st43" width="0.4" height="0.4"/>
					
						<rect x="470.5" y="404.4" transform="matrix(0.5481 -0.8364 0.8364 0.5481 -125.6634 576.5374)" class="st43" width="0.4" height="0.4"/>
					
						<rect x="470.8" y="405.4" transform="matrix(0.5481 -0.8364 0.8364 0.5481 -126.4076 577.2178)" class="st43" width="0.4" height="0.4"/>
					
						<rect x="471.1" y="405.7" transform="matrix(0.5481 -0.8364 0.8364 0.5481 -126.5214 577.6503)" class="st43" width="0.4" height="0.4"/>
					
						<rect x="471.9" y="405.2" transform="matrix(0.5481 -0.8364 0.8364 0.5481 -125.7502 578.066)" class="st43" width="0.4" height="0.4"/>
					
						<rect x="471.8" y="407.6" transform="matrix(0.5481 -0.8364 0.8364 0.5481 -127.7898 579.0642)" class="st43" width="0.4" height="0.4"/>
					
						<rect x="472" y="407.2" transform="matrix(0.5481 -0.8364 0.8364 0.5481 -127.366 579.066)" class="st43" width="0.4" height="0.4"/>
					
						<rect x="472.1" y="406.3" transform="matrix(0.5481 -0.8364 0.8364 0.5481 -126.5293 578.7622)" class="st43" width="0.4" height="0.4"/>
					
						<rect x="471.9" y="406.7" transform="matrix(0.5481 -0.8364 0.8364 0.5481 -126.9796 578.7285)" class="st43" width="0.4" height="0.4"/>
					
						<rect x="471.3" y="406.8" transform="matrix(0.5481 -0.8364 0.8364 0.5481 -127.3756 578.3144)" class="st43" width="0.4" height="0.4"/>
					
						<rect x="472.6" y="407" transform="matrix(0.5481 -0.8364 0.8364 0.5481 -126.9853 579.4622)" class="st43" width="0.4" height="0.4"/>
					
						<rect x="471.3" y="405.3" transform="matrix(0.5481 -0.8364 0.8364 0.5481 -126.1208 577.6561)" class="st43" width="0.4" height="0.4"/>
					
						<rect x="471.8" y="406.1" transform="matrix(0.5481 -0.8364 0.8364 0.5481 -126.5304 578.436)" class="st43" width="0.4" height="0.4"/>
					
						<rect x="472" y="405.7" transform="matrix(0.5481 -0.8364 0.8364 0.5481 -126.1299 578.4418)" class="st43" width="0.4" height="0.4"/>
					
						<rect x="473.3" y="406.1" transform="matrix(0.5481 -0.8364 0.8364 0.5481 -125.8748 579.662)" class="st43" width="0.4" height="0.4"/>
					
						<rect x="471.5" y="408.8" transform="matrix(0.5481 -0.8364 0.8364 0.5481 -128.983 579.3838)" class="st43" width="0.4" height="0.4"/>
					
						<rect x="470.7" y="407.9" transform="matrix(0.5481 -0.8364 0.8364 0.5481 -128.5343 578.3042)" class="st43" width="0.4" height="0.4"/>
					
						<rect x="470.5" y="406.6" transform="matrix(0.5481 -0.8364 0.8364 0.5481 -127.5884 577.5141)" class="st43" width="0.4" height="0.4"/>
					
						<rect x="470.9" y="406" transform="matrix(0.5481 -0.8364 0.8364 0.5481 -126.8385 577.5848)" class="st43" width="0.4" height="0.4"/>
					
						<rect x="472.5" y="406.5" transform="matrix(0.5481 -0.8364 0.8364 0.5481 -126.5871 579.1843)" class="st43" width="0.4" height="0.4"/>
					
						<rect x="471.3" y="406.2" transform="matrix(0.5481 -0.8364 0.8364 0.5481 -126.8442 577.9852)" class="st43" width="0.4" height="0.4"/>
					
						<rect x="472.7" y="406.3" transform="matrix(0.5481 -0.8364 0.8364 0.5481 -126.2481 579.2673)" class="st43" width="0.4" height="0.4"/>
					
						<rect x="471.3" y="407.7" transform="matrix(0.5481 -0.8364 0.8364 0.5481 -128.1611 578.6992)" class="st43" width="0.4" height="0.4"/>
					
						<rect x="470" y="407.9" transform="matrix(0.5481 -0.8364 0.8364 0.5481 -128.8645 577.756)" class="st43" width="0.4" height="0.4"/>
					
						<rect x="469.8" y="406.8" transform="matrix(0.5481 -0.8364 0.8364 0.5481 -128.0434 577.0913)" class="st43" width="0.4" height="0.4"/>
					
						<rect x="470" y="407.4" transform="matrix(0.5481 -0.8364 0.8364 0.5481 -128.4651 577.4537)" class="st43" width="0.4" height="0.4"/>
					
						<rect x="471.3" y="408.4" transform="matrix(0.5481 -0.8364 0.8364 0.5481 -128.6738 579.0453)" class="st43" width="0.4" height="0.4"/>
					
						<rect x="471.1" y="407.1" transform="matrix(0.5481 -0.8364 0.8364 0.5481 -127.7016 578.2672)" class="st43" width="0.4" height="0.4"/>
					
						<rect x="471.5" y="407.4" transform="matrix(0.5481 -0.8364 0.8364 0.5481 -127.7789 578.7095)" class="st43" width="0.4" height="0.4"/>
					
						<rect x="469.3" y="407" transform="matrix(0.5481 -0.8364 0.8364 0.5481 -128.4097 576.7083)" class="st43" width="0.4" height="0.4"/>
					
						<rect x="469.1" y="406.3" transform="matrix(0.5481 -0.8364 0.8364 0.5481 -127.9181 576.2775)" class="st43" width="0.4" height="0.4"/>
					
						<rect x="469.7" y="406.3" transform="matrix(0.5481 -0.8364 0.8364 0.5481 -127.6065 576.7495)" class="st43" width="0.4" height="0.4"/>
					
						<rect x="470.1" y="405" transform="matrix(0.5481 -0.8364 0.8364 0.5481 -126.3811 576.4661)" class="st43" width="0.4" height="0.4"/>
					
						<rect x="470.4" y="406.1" transform="matrix(0.5481 -0.8364 0.8364 0.5481 -127.2143 577.2051)" class="st43" width="0.4" height="0.4"/>
					
						<rect x="469.6" y="405.6" transform="matrix(0.5481 -0.8364 0.8364 0.5481 -127.0929 576.3281)" class="st43" width="0.4" height="0.4"/>
					
						<rect x="470.2" y="405.5" transform="matrix(0.5481 -0.8364 0.8364 0.5481 -126.7928 576.8365)" class="st43" width="0.4" height="0.4"/>
					
						<rect x="470.1" y="406.4" transform="matrix(0.5481 -0.8364 0.8364 0.5481 -127.537 577.1094)" class="st43" width="0.4" height="0.4"/>
					
						<rect x="470.6" y="404.8" transform="matrix(0.5481 -0.8364 0.8364 0.5481 -126.0052 576.8458)" class="st43" width="0.4" height="0.4"/>
					
						<rect x="471.9" y="408.2" transform="matrix(0.5481 -0.8364 0.8364 0.5481 -128.2885 579.4208)" class="st43" width="0.4" height="0.4"/>
					
						<rect x="471" y="406.5" transform="matrix(0.5481 -0.8364 0.8364 0.5481 -127.2176 577.9241)" class="st43" width="0.4" height="0.4"/>
					
						<rect x="470.6" y="407.2" transform="matrix(0.5481 -0.8364 0.8364 0.5481 -128.0429 577.8735)" class="st43" width="0.4" height="0.4"/>
					
						<rect x="451.7" y="395.9" transform="matrix(0.5481 -0.8364 0.8364 0.5481 -129.9241 564.6545)" class="st41" width="11.8" height="13.3"/>
				</g>
				<g class="st1">
					<g class="st2">
						<path class="st54" d="M379.8,305.2c0,3.1,2.5,5.6,5.6,5.6h61.5c3.1,0,5.6-2.5,5.6-5.6v-3.9h-72.7L379.8,305.2L379.8,305.2z"/>
						<path class="st55" d="M450,251.5h-67.8c-1.3,0-2.5,1.1-2.5,2.5v47.3h72.7V254C452.5,252.7,451.4,251.5,450,251.5z"/>
					</g>
					<circle class="st43" cx="416.1" cy="306.3" r="1.7"/>
					<rect x="410.1" y="310.9" class="st56" width="12.1" height="6.8"/>
					<rect x="381.3" y="253" class="st41" width="69.7" height="46.9"/>
					<rect x="404.6" y="317.5" class="st56" width="22.9" height="2"/>
					<path class="st50" d="M439.5,296.2h-46.6c-2.6,0-4.8-2.1-4.8-4.8v-26.1c0-2.6,2.1-4.8,4.8-4.8h46.6c2.6,0,4.8,2.1,4.8,4.8v26.1
						C444.2,294.1,442.1,296.2,439.5,296.2z"/>
					<g class="st2">
						<path class="st0" d="M403.4,266.8h4.4l8,22.8h-4.2l-1.8-5.2h-8.6l-1.8,5.2h-4.2L403.4,266.8z M402.4,281.2h6.5l-3.3-9.6
							L402.4,281.2z"/>
						<path class="st0" d="M418,266.8h9.1c1.6,0,3,0.3,4.2,0.8c1.2,0.6,2.3,1.3,3.1,2.3c0.8,1,1.4,2.2,1.8,3.6
							c0.4,1.4,0.6,2.9,0.6,4.6c0,1.8-0.2,3.4-0.6,4.8s-1.1,2.6-1.8,3.6c-0.8,1-1.8,1.8-3.1,2.3c-1.2,0.5-2.7,0.8-4.3,0.8H418
							L418,266.8L418,266.8z M426.8,285.9c1.8,0,3.3-0.6,4.4-1.8c1.1-1.2,1.6-3,1.6-5.6c0-2.7-0.6-4.8-1.7-6.1c-1.1-1.3-2.8-2-5.1-2
							H422v15.4L426.8,285.9L426.8,285.9L426.8,285.9z"/>
					</g>
				</g>
			</g>
		</g>
	</g>
	<g class="st2">
		<g>
			
				<image style="overflow:visible;opacity:0.29;" width="423" height="949" xlink:href="EA2D8052.png"  transform="matrix(0.24 0 0 0.24 68.6899 171.6499)">
			</image>
			<g>
				<rect x="90" y="182.7" class="st57" width="59" height="185.5"/>
			</g>
		</g>
		<g>
			
				<image style="overflow:visible;opacity:0.29;" width="547" height="955" xlink:href="EA2D8051.png"  transform="matrix(0.24 0 0 0.24 313.8965 182.6165)">
			</image>
			<g>
				<rect x="339.1" y="195.8" class="st57" width="80.9" height="178.9"/>
			</g>
		</g>
		<rect x="92.8" y="125.7" class="st57" width="53.4" height="67.3"/>
		<rect x="339.1" y="144.3" class="st57" width="77.3" height="74"/>
	</g>
</g>
<g>
	<g>
		<g>
			<path class="st58" d="M153.6,127.8c0,21.4-17.4,38.8-38.8,38.8c-21.4,0-38.8-17.4-38.8-38.8c0-21.4,17.4-38.8,38.8-38.8
				C136.3,89,153.6,106.4,153.6,127.8z"/>
			<path class="st58" d="M109.1,253.3h104.4c0,0,22-4.8,22-25.9V57c0,0-4.8-39.3-30.6-39.3c0,0-28.7,1-28.7,45v87.1
				c0,0,0,40.2-36.4,40.2l-30.6-1c0,0-33,6.7-33,32.6C76.1,221.7,75.6,253.3,109.1,253.3z"/>
		</g>
		<g>
			<path class="st59" d="M384.6,190.8c-21.4,0-38.8-17.4-38.8-38.8c0-21.4,17.4-38.8,38.8-38.8c21.4,0,38.8,17.4,38.8,38.8
				C423.4,173.4,406.1,190.8,384.6,190.8z"/>
			<path class="st59" d="M259.2,146.3v104.4c0,0,4.8,22,25.9,22h170.4c0,0,39.3-4.8,39.3-30.6c0,0-1-28.7-45-28.7h-87.1
				c0,0-40.2,0-40.2-36.4l1-30.6c0,0-6.7-33-32.6-33C290.8,113.2,259.2,112.7,259.2,146.3z"/>
		</g>
		<g>
			<path class="st60" d="M124.2,359.8c21.4,0,38.8,17.4,38.8,38.8c0,21.4-17.4,38.8-38.8,38.8c-21.4,0-38.8-17.4-38.8-38.8
				C85.4,377.1,102.8,359.8,124.2,359.8z"/>
			<path class="st60" d="M249.6,404.3V299.9c0,0-4.8-22-25.9-22H53.3c0,0-39.3,4.8-39.3,30.6c0,0,1,28.7,45,28.7h87.1
				c0,0,40.2,0,40.2,36.4l-1,30.6c0,0,6.7,33,32.6,33C218,437.3,249.6,437.8,249.6,404.3z"/>
		</g>
	</g>
	<g>
		<g id="왼쪽귀_00000173869848999201509740000010944503480761770627_">
			<g>
				<path class="st61" d="M294.5,385.5c0.1,0.3,0.6,3.4,0.5,3.7c-0.2,0.3-10.4,9.2-15.1,10.6c-4.6,1.3-16.1,0-17.9-1
					c-1.8-1-5.1-2.7-3.1-5.1S294.5,385.5,294.5,385.5z"/>
				<g>
					<path class="st62" d="M270,388.7c-2.3,0.3-10.2,4.2-11.8,6.2c-0.1,0.4,0,0.7,0.2,1.1c1.6,3.3,15.7,7.3,21.8,5.8
						c6.1-1.5,16-11.4,16-11.4l-0.3-3.8c-1.3,0.9-3.4-4-6.4-2.6C285.5,386,272.3,388.4,270,388.7z"/>
					<path class="st61" d="M294.5,385.5c0.1,0.3,0.6,3.4,0.5,3.7c-0.2,0.3-10.4,9.2-15.1,10.6c-4.6,1.3-16.1,0-17.9-1
						c-1.8-1-5.1-2.7-3.1-5.1S294.5,385.5,294.5,385.5z"/>
					<path class="st63" d="M266.5,389.7c-6.7,2.7-9.3,4.4-7.7,6.9c1.5,0.4,7.2,1.3,13.3,1c2.3-0.1,13.9-1.7,17.9-3.7
						c2.9-1.4,5.2-4.7,6.5-5.6l-0.7-8.1C295.9,380.2,274.1,386.6,266.5,389.7z"/>
					<g>
						<defs>
							<path id="SVGID_00000113330721447368651030000010360499628965591995_" d="M272.8,386.8c-6.7,2.7-14,5.3-14.6,8.1
								c1.5,0.4,7.3,2,13.3,1c2.3-0.4,13.5-3.3,17.5-5.2c2.9-1.4,5.6-3.2,6.9-4l-0.7-8.1C295.2,378.6,280.4,383.8,272.8,386.8z"/>
						</defs>
						<use xlink:href="#SVGID_00000113330721447368651030000010360499628965591995_"  style="overflow:visible;fill:#FFFDF5;"/>
						<clipPath id="SVGID_00000159443368190014944500000011892628530294047104_">
							<use xlink:href="#SVGID_00000113330721447368651030000010360499628965591995_"  style="overflow:visible;"/>
						</clipPath>
						<path style="clip-path:url(#SVGID_00000159443368190014944500000011892628530294047104_);fill:#E5D6C7;" d="M278.1,384.6
							c0.1-0.1,10.9-1.4,12,7l7.9-4.8l-1.7-9.6l-12.6,1.4L278.1,384.6z"/>
						
							<use xlink:href="#SVGID_00000113330721447368651030000010360499628965591995_"  style="overflow:visible;fill:none;stroke:#231815;stroke-width:0.5;stroke-miterlimit:10;"/>
					</g>
				</g>
			</g>
			<g>
				<ellipse class="st65" cx="293" cy="384.2" rx="1.6" ry="1.6"/>
				<line class="st65" x1="293" y1="385.6" x2="293" y2="382.7"/>
				<line class="st65" x1="291.4" y1="384.2" x2="294.6" y2="384.2"/>
			</g>
		</g>
		<g id="오른귀_00000173848483338429407350000001924259055702801051_">
			<g>
				<path class="st61" d="M413.8,385.5c-0.1,0.3-0.6,3.4-0.5,3.7c0.2,0.3,10.4,9.2,15.1,10.6c4.6,1.3,16.1,0,17.9-1
					c1.8-1,5.1-2.7,3.1-5.1S413.8,385.5,413.8,385.5z"/>
				<g>
					<path class="st62" d="M438.3,388.7c2.3,0.3,10.2,4.2,11.8,6.2c0.1,0.4,0,0.7-0.2,1.1c-1.6,3.3-15.7,7.3-21.8,5.8
						c-6.1-1.5-16-11.4-16-11.4l0.3-3.8c1.3,0.9,3.4-4,6.4-2.6C422.8,386,436,388.4,438.3,388.7z"/>
					<path class="st61" d="M413.8,385.5c-0.1,0.3-0.6,3.4-0.5,3.7c0.2,0.3,10.4,9.2,15.1,10.6c4.6,1.3,16.1,0,17.9-1
						c1.8-1,5.1-2.7,3.1-5.1S413.8,385.5,413.8,385.5z"/>
					<path class="st63" d="M435.4,388.4c6.7,2.7,16,4.5,14.6,8.1c-1.5,0.4-7.3,2-13.3,1c-2.3-0.4-13.8-1.8-17.8-3.7
						c-2.9-1.4-5.3-4.7-6.6-5.6l0.7-8.1C413,380.1,427.8,385.3,435.4,388.4z"/>
					<g>
						<defs>
							<path id="SVGID_00000026152777934936321830000006101631559066369691_" d="M435.5,386.8c6.7,2.7,14,5.3,14.6,8.1
								c-1.5,0.4-7.3,2-13.3,1c-2.3-0.4-13.5-3.3-17.5-5.2c-2.9-1.4-5.6-3.2-6.9-4l0.7-8.1C413.1,378.6,428,383.8,435.5,386.8z"/>
						</defs>
						<use xlink:href="#SVGID_00000026152777934936321830000006101631559066369691_"  style="overflow:visible;fill:#FFFDF5;"/>
						<clipPath id="SVGID_00000088835119774868752250000006976918435538533264_">
							<use xlink:href="#SVGID_00000026152777934936321830000006101631559066369691_"  style="overflow:visible;"/>
						</clipPath>
						<path style="clip-path:url(#SVGID_00000088835119774868752250000006976918435538533264_);fill:#E5D6C7;" d="M430.5,384.9
							c-0.1-0.1-10.9-1.4-12,7l-7.9-4.8l1.7-9.6l12.6,1.4L430.5,384.9z"/>
						
							<use xlink:href="#SVGID_00000026152777934936321830000006101631559066369691_"  style="overflow:visible;fill:none;stroke:#231815;stroke-width:0.5;stroke-miterlimit:10;"/>
					</g>
				</g>
			</g>
			<g>
				<ellipse class="st65" cx="415.3" cy="384.2" rx="1.6" ry="1.6"/>
				<line class="st65" x1="415.3" y1="385.6" x2="415.3" y2="382.7"/>
				<line class="st65" x1="416.9" y1="384.2" x2="413.7" y2="384.2"/>
			</g>
		</g>
		<g>
			<defs>
				<path id="SVGID_00000137842045002547428350000002522141607180860581_" d="M410,340.7c7.4,14.3,8.1,29.2,8.1,31.6
					c0,7,3.5,19.4,1.5,25.8c-1.2,3.8-3.4,8.9-6.4,11.1c-3.2,2.4-4.8,1.7-7,2.6c0,0-0.3,4.5-2.6,6.5c-2.2,1.8-11.5,8.5-19.1,4.7
					c-7.6,3.3-18.7,4.2-30.3,1.1c-11.7,3.2-22.8,2.2-30.3-1.1c-7.6,3.8-16.9-2.9-19.1-4.7c-2.3-2-2.6-6.5-2.6-6.5
					c-2.1-0.9-3.8-0.3-7-2.6c-3-2.2-5.2-7.3-6.4-11.1c-2-6.4,1.5-18.8,1.5-25.8c0-2.4,0.7-17.3,8.1-31.6
					C319.3,317.1,400,318.6,410,340.7z"/>
			</defs>
			<use xlink:href="#SVGID_00000137842045002547428350000002522141607180860581_"  style="overflow:visible;fill:#F7F3B5;"/>
			<clipPath id="SVGID_00000018228592224870274140000014777869779359847080_">
				<use xlink:href="#SVGID_00000137842045002547428350000002522141607180860581_"  style="overflow:visible;"/>
			</clipPath>
			<path style="clip-path:url(#SVGID_00000018228592224870274140000014777869779359847080_);fill:#D3CEA3;" d="M413.3,369.1
				c0.2,1.5-11.2,3.2-7.1,20.9c1.1,4.9,0.9,13-0.6,17.5s-4.8,13.6-10.2,16.7c-5.5,3.1-9.2-1-18.4-0.9c-9.2,0.1-51.1-0.9-51.1-0.9
				s-7.1,3.8-9.9,3.1c-7.4-2-13.7-16-15.7-20.1c-2-4.2-1.6-15.4-1.1-20.2c1.5-14.8-8.5-20.8-8.5-20.8s15.9-22.6,62.8-21.4
				S413.3,369.1,413.3,369.1z"/>
			
				<use xlink:href="#SVGID_00000137842045002547428350000002522141607180860581_"  style="overflow:visible;fill:none;stroke:#231815;stroke-width:0.5;stroke-miterlimit:10;"/>
		</g>
		<g id="얼굴_00000071534547875018227050000005746749857223542916_">
			<defs>
				<path id="SVGID_00000171721615338128639440000002960356061337993345_" d="M354.2,429.9c14.3,0,37-6.2,45-19.7
					c0.5-0.8,1.8-2.6,1.8-3.4c0-0.8-1.4-0.7-1.6-1.6c-0.1-0.6,1.3-1.9,1.2-2.5c-0.3-1.2-1.8-2-1.9-3.5c-0.1-1.4,0.4-8.6,0.5-10.1
					c0.4-5.7-0.9-8.4-0.9-13.1c0-21.6-19.8-39-44.2-39c-24.4,0-44.2,17.5-44.2,39c0,4.6-1.3,7.3-0.9,13.1c0.1,1.5,0.6,8.7,0.5,10.1
					c-0.1,1.5-1.6,2.2-1.9,3.5c-0.1,0.6,1.3,1.9,1.2,2.5c-0.2,0.9-1.6,0.7-1.6,1.6c0,0.8,1.3,2.6,1.8,3.4
					C317.2,423.7,339.8,429.9,354.2,429.9z"/>
			</defs>
			<use xlink:href="#SVGID_00000171721615338128639440000002960356061337993345_"  style="overflow:visible;fill:#FFFDF5;"/>
			<clipPath id="SVGID_00000092452699496737976620000000811485318125101449_">
				<use xlink:href="#SVGID_00000171721615338128639440000002960356061337993345_"  style="overflow:visible;"/>
			</clipPath>
			<path style="clip-path:url(#SVGID_00000092452699496737976620000000811485318125101449_);fill:#E5D6C7;" d="M400.1,366.8
				c0,0-15.4-4.6-22.3-1.9s-6.1,5.9-6.1,5.9c0.5-0.1,18.9,2.1,22.5,8.3c3.6,6.2,3.9,20.6,2.1,26.1c-1.8,5.5-5.9,9.2-9.2,12.3
				c-3.2,3-13.8,10.7-32.6,11.2c0,0,0-0.1,0-0.1c-19.4-0.2-30-8-33.2-11.1s-7.7-5.9-9.5-11.5c-1.8-5.5-1.3-21.5,2.3-27.8
				c3.6-6.2,22.1-7.7,22.6-7.5c0,0,0.7-3.2-6.1-5.9c-6.9-2.7-22.3,1.9-22.3,1.9s-9.7,21.2-3.2,40c6.5,18.7,48.3,25,48.8,24.9
				c0.5,0.1,43-6.2,49.5-24.9C409.8,388,400.1,366.8,400.1,366.8z"/>
			<path style="clip-path:url(#SVGID_00000092452699496737976620000000811485318125101449_);fill:#E5D6C7;" d="M371.6,404.1
				c-1.1-0.6-2.4-0.9-3.6-1c-4.6-0.7-9.2-0.9-13.8-0.8c-4.6-0.1-9.2,0.2-13.8,0.8c-1.2,0.2-2.5,0.4-3.6,1c-0.5,0.3-1,1-0.6,1.5
				c0.2,0.2,0.4,0.2,0.6,0.3c0.8,0.1,1.7,0,2.5-0.2c4.9-0.8,9.9-1.5,14.9-1.7c5,0.2,10,1,14.9,1.7c0.8,0.1,1.7,0.3,2.5,0.2
				c0.2,0,0.5-0.1,0.6-0.3C372.6,405.1,372.1,404.4,371.6,404.1z"/>
			
				<use xlink:href="#SVGID_00000171721615338128639440000002960356061337993345_"  style="overflow:visible;fill:none;stroke:#231815;stroke-width:0.5;stroke-miterlimit:10;"/>
		</g>
		<g id="눈코입_00000127027985314821189720000004275954581118539943_">
			<g>
				<defs>
					<path id="SVGID_00000045609560992437327290000000763100389749541545_" d="M322.3,389.7c0.1-0.1,5-2.9,8.8-2.3
						c3.8,0.6,9.4,3.3,10.5,4.5c1.1,1.1,1.1,1.2,1.6,1.7c0.5,0.5,1.9,6.6,1,7.3c-0.9,0.6-9.7,1.9-12.6,1.5s-9-3.4-9.7-9.7
						C322,392.7,321.7,390.5,322.3,389.7z"/>
				</defs>
				<clipPath id="SVGID_00000138569603639463309490000017321953942932330368_">
					<use xlink:href="#SVGID_00000045609560992437327290000000763100389749541545_"  style="overflow:visible;"/>
				</clipPath>
				<g style="clip-path:url(#SVGID_00000138569603639463309490000017321953942932330368_);">
					<defs>
						<ellipse id="SVGID_00000139996663803381751320000002643479907176149133_" cx="334.5" cy="393.9" rx="6.1" ry="8"/>
					</defs>
					<clipPath id="SVGID_00000176023244247005858540000007049067566624291741_">
						<use xlink:href="#SVGID_00000139996663803381751320000002643479907176149133_"  style="overflow:visible;"/>
					</clipPath>
					
						<ellipse style="clip-path:url(#SVGID_00000176023244247005858540000007049067566624291741_);fill:#231815;stroke:#231815;stroke-width:0.5;stroke-miterlimit:10;" cx="335.2" cy="392" rx="7" ry="6.9"/>
					
						<use xlink:href="#SVGID_00000139996663803381751320000002643479907176149133_"  style="overflow:visible;fill:none;stroke:#231815;stroke-width:0.5;stroke-miterlimit:10;"/>
				</g>
			</g>
			<path class="st71" d="M342.6,392.3c0,0-1.9-2.6-6.2-4.1c-4.3-1.6-7.8-2-10.4-1.3c-2.7,0.7-4.5,1.3-4.8,2.6
				c-0.3,1.2,0.6,4.5,1.3,5.6c0,0-0.2-3.2,0-4.3c0,0,3.7-2.9,6.8-2.6c3.1,0.3,8.8,2,10.4,3c1.6,0.9,3,1.9,3,1.9L342.6,392.3z"/>
			<path class="st71" d="M335.9,386.1c0,0-0.7,1.3-0.6,2.2c0.1,0,1.2,0.5,1.2,0.5S335.7,387,335.9,386.1z"/>
			<path class="st71" d="M329.2,384.5c0,0,0,2.1,0.5,2.6l-1.3-0.1C328.4,387.1,328.5,385.2,329.2,384.5z"/>
			<path class="st71" d="M324.8,385.8c0-0.1,0.6,1.3,1.2,1.7l-1.3,0.4C324.7,387.9,324.5,386.6,324.8,385.8z"/>
			
				<ellipse transform="matrix(0.9349 -0.355 0.355 0.9349 -116.9525 144.1727)" class="st0" cx="334.5" cy="390.8" rx="1.5" ry="1.6"/>
			<path class="st72" d="M354.2,409.6c1.3-0.4,3.4-2,4.5-2.9c0.4-0.3,0.3-1-0.2-1.1c-1.6-0.4-4.3-0.4-4.3-0.4s-2.7,0-4.3,0.4
				c-0.5,0.1-0.6,0.8-0.2,1.1C350.7,407.6,352.8,409.1,354.2,409.6z"/>
			<path class="st71" d="M354.2,412.4c-1.9,2-6.8-0.4-6.8-0.4c1.6,2.7,6.8,2.1,6.8,2.1s5.2,0.6,6.8-2.1
				C361,411.9,356.1,414.4,354.2,412.4z"/>
			<path class="st71" d="M348,411.2c-0.1,0-0.8,0.1-1.2,0.6c-0.4,0.4-0.7,1.1-0.3,1c0.4-0.1,0.9-0.5,1.2-0.8
				C348.1,411.6,348.4,411.1,348,411.2z"/>
			<path class="st71" d="M359.8,411.2c0.1,0,0.8,0.1,1.2,0.6c0.4,0.4,0.7,1.1,0.3,1c-0.4-0.1-0.9-0.5-1.2-0.8
				C359.7,411.6,359.5,411.1,359.8,411.2z"/>
			<path class="st71" d="M341.5,382.3c0,0-6.5-3.8-10.5-3.7L341.5,382.3z"/>
			<g>
				<defs>
					<path id="SVGID_00000022539577795689339300000006348300878313060534_" d="M386,389.7c-0.1-0.1-5-2.9-8.8-2.3
						c-3.8,0.6-9.4,3.3-10.5,4.5c-1.1,1.1-1.1,1.2-1.6,1.7c-0.5,0.5-1.9,6.6-1,7.3c0.9,0.6,9.7,1.9,12.6,1.5s9-3.4,9.7-9.7
						C386.3,392.7,386.6,390.5,386,389.7z"/>
				</defs>
				<clipPath id="SVGID_00000101095433516135787610000003275770458913528475_">
					<use xlink:href="#SVGID_00000022539577795689339300000006348300878313060534_"  style="overflow:visible;"/>
				</clipPath>
				<g style="clip-path:url(#SVGID_00000101095433516135787610000003275770458913528475_);">
					<defs>
						<ellipse id="SVGID_00000052819823765042307570000015988774436889410949_" cx="373.8" cy="393.9" rx="6.1" ry="8"/>
					</defs>
					<clipPath id="SVGID_00000176039513610814266420000002918863252689852084_">
						<use xlink:href="#SVGID_00000052819823765042307570000015988774436889410949_"  style="overflow:visible;"/>
					</clipPath>
					
						<ellipse style="clip-path:url(#SVGID_00000176039513610814266420000002918863252689852084_);fill:#231815;stroke:#231815;stroke-width:0.5;stroke-miterlimit:10;" cx="373.1" cy="392" rx="7" ry="6.9"/>
					
						<use xlink:href="#SVGID_00000052819823765042307570000015988774436889410949_"  style="overflow:visible;fill:none;stroke:#231815;stroke-width:0.5;stroke-miterlimit:10;"/>
				</g>
			</g>
			<path class="st71" d="M365.7,392.3c0,0,1.9-2.6,6.2-4.1c4.3-1.6,7.8-2,10.4-1.3c2.7,0.7,4.5,1.3,4.8,2.6c0.3,1.2-0.6,4.5-1.3,5.6
				c0,0,0.2-3.2,0-4.3c0,0-3.7-2.9-6.8-2.6c-3.1,0.3-8.8,2-10.4,3c-1.6,0.9-3,1.9-3,1.9L365.7,392.3z"/>
			<path class="st71" d="M372.4,386.1c0,0,0.7,1.3,0.6,2.2c-0.1,0-1.2,0.5-1.2,0.5S372.6,387,372.4,386.1z"/>
			<path class="st71" d="M379.1,384.5c0,0,0,2.1-0.5,2.6l1.3-0.1C379.9,387.1,379.8,385.2,379.1,384.5z"/>
			
				<ellipse transform="matrix(0.355 -0.9349 0.9349 0.355 -124.2536 601.611)" class="st0" cx="373.8" cy="390.8" rx="1.6" ry="1.5"/>
			<path class="st71" d="M366.8,382.3c0,0,6.5-3.8,10.5-3.7L366.8,382.3z"/>
		</g>
		<g>
			<defs>
				<path id="SVGID_00000093856696969782909460000002838238164073342644_" d="M296.5,307.6c0,0,5.6-1.1,8.9,0.9s5.8,7.1,6.9,10.4
					c1.1,3.3,1.2,6.1,1.2,6.1s-10.8,9.6-12.5,12.6c0,0-9.3,1.3-13.1-1.3c-3.8-2.6-6.4-6.1-5.4-9.9s6.8-7.7,9-7.2
					C291.5,319.3,291.4,308.5,296.5,307.6z"/>
			</defs>
			<clipPath id="SVGID_00000121249834295423718980000002032995317332547210_">
				<use xlink:href="#SVGID_00000093856696969782909460000002838238164073342644_"  style="overflow:visible;"/>
			</clipPath>
			<g style="clip-path:url(#SVGID_00000121249834295423718980000002032995317332547210_);">
				<defs>
					<path id="SVGID_00000088850412110914222700000003862599933043826561_" d="M293.7,320.8c0,0-3.2-10.3,6.4-11.2
						c10.5-1,14,17.2,9.5,23.3c-4.7,5.4-24.2,7-25.6-3.3C282.8,320,293.7,320.8,293.7,320.8z"/>
				</defs>
				<use xlink:href="#SVGID_00000088850412110914222700000003862599933043826561_"  style="overflow:visible;fill:#9780AF;"/>
				<clipPath id="SVGID_00000045577352402636712780000008653051895656144819_">
					<use xlink:href="#SVGID_00000088850412110914222700000003862599933043826561_"  style="overflow:visible;"/>
				</clipPath>
				<path style="clip-path:url(#SVGID_00000045577352402636712780000008653051895656144819_);fill:#D1E7EE;" d="M297.6,309.6
					c-0.5,0.2,6.4,0.7,8.6,4.7c2.1,4.1,2.9,8.8,3,11.4c0.1,2.6-1.1,5.8-1.1,5.8s-5.4,2.7-9.2,3.1c-3.9,0.4-11.7,1-16-6.3
					c-0.6,0.2,1.3,8,8,9.9c6.7,1.9,17.7-2,21-3.2c0,0,2.7-7,1.1-13.1S306.4,306.1,297.6,309.6z"/>
				
					<use xlink:href="#SVGID_00000088850412110914222700000003862599933043826561_"  style="overflow:visible;fill:none;stroke:#231815;stroke-width:0.5;stroke-miterlimit:10;"/>
			</g>
		</g>
		<g>
			<defs>
				<path id="SVGID_00000055701387890963656160000002205041610938192561_" d="M395.5,307.7c0,0,1.2-11.8-9.3-10.7
					c-11.5,1.2-11.3,21.3-5.2,26.9c6.1,4.8,27.4,2.5,26.7-8.9C407,304.5,395.5,307.7,395.5,307.7z"/>
			</defs>
			<use xlink:href="#SVGID_00000055701387890963656160000002205041610938192561_"  style="overflow:visible;fill:#9780AF;"/>
			<clipPath id="SVGID_00000062154311698398131990000000216894328036076187_">
				<use xlink:href="#SVGID_00000055701387890963656160000002205041610938192561_"  style="overflow:visible;"/>
			</clipPath>
			<path style="clip-path:url(#SVGID_00000062154311698398131990000000216894328036076187_);fill:#D1E7EE;" d="M384.1,296.4
				c0.5-0.1-3.5,5.6-4,9.8s1.1,13.3,2.3,15.9c0,0,14.1,1.2,19.7-2.4c5.6-3.5,6.8-6.5,6.8-8.2c0,0,0.2,7.5-2.8,11.3
				c-3,3.8-24,6.9-26.1,6c-2.1-0.9-6.1-14.4-5.3-20.6C375.5,302,379,297.7,384.1,296.4z"/>
			
				<use xlink:href="#SVGID_00000055701387890963656160000002205041610938192561_"  style="overflow:visible;fill:none;stroke:#231815;stroke-width:0.5;stroke-miterlimit:10;"/>
		</g>
		<g>
			<defs>
				<path id="SVGID_00000012435579956566356960000002928791878866757766_" d="M355.4,370c9.2,7.9,19.5-1.5,19.5-1.5
					c16.6,8.6,27.1,3.7,27.1,3.7c0.9-1.2,18.5,9.3,24.3-4.7c4.2-10-2.8-16.4-5.9-18.1c-1.9-4-2.3-7.1-5.4-11.9
					c-11.6-18.9-38.7-25.9-59.6-25.5c-21,0.4-46.6,8.4-57.4,27.6c-3.3,0.5-7.1,4.7-9,8.7c-1.1,2.4-2.4,5.8-1.2,10.5
					c0.8,3.2,3.5,6.2,4.3,7.4c0,0,14.2,16.4,36,3.2c0,0,8.1,7.3,26.5,0.7H355.4z"/>
			</defs>
			<use xlink:href="#SVGID_00000012435579956566356960000002928791878866757766_"  style="overflow:visible;fill:#F7F3B5;"/>
			<clipPath id="SVGID_00000003788067392922058230000003282987648571206308_">
				<use xlink:href="#SVGID_00000012435579956566356960000002928791878866757766_"  style="overflow:visible;"/>
			</clipPath>
			<path style="clip-path:url(#SVGID_00000003788067392922058230000003282987648571206308_);fill:#DBDBD9;" d="M403.9,324.9
				c0,0,11.6,14.6,14,24.2c0,0,6.3,2.9,6.8,9.2s-2.7,10.3-6.8,11.1c-4.1,0.8-13.8-0.2-15.9-6.4c0,0-2.9,6.8-8.7,7.2
				s-16.8-7.2-17.2-7.7c-0.4-0.5-5.9,7.1-11.3,7.1c-5.4,0-9.1-7.2-9.1-7.2s-4.4,6.4-14.4,6.6c-7.6,0.1-11.8-6.5-11.8-6.5
				s-15.5,14.1-30.5,4.8c-8.5-5.2-8-14.2-7.4-16.5c1.3-4.4,2.7-7.6,8.6-9.4c0,0,3.3-7.8,10.8-15.6c0,0-15.4,4.5-21.2,16.4
				s-5.2,13.8-3.6,18s5.1,12,14.7,14.5c9.5,2.5,20.4,2.4,27.2-1.1c0,0,18.9,5.1,26.9-0.4c0,0,11.6,4.6,20-0.5c0,0,20.1,7.5,28.3,1.9
				c0,0,15.9,6.2,23.2-3.5s3.3-19.6-3.8-23.3C422.5,348,414.2,328,403.9,324.9z"/>
			
				<use xlink:href="#SVGID_00000012435579956566356960000002928791878866757766_"  style="overflow:visible;fill:none;stroke:#231815;stroke-width:0.5;stroke-miterlimit:10;"/>
		</g>
		<g>
			<defs>
				<path id="SVGID_00000127024725869551720420000012239401733997052332_" d="M329.5,292.3c0,0,9.4-13,19-3.2
					c10.4,10.8-7.6,31-18.4,31.5c-10.2-0.4-29.4-20.4-18.9-31.2C320.7,279.5,329.5,292.3,329.5,292.3z"/>
			</defs>
			<use xlink:href="#SVGID_00000127024725869551720420000012239401733997052332_"  style="overflow:visible;fill:#9780AF;"/>
			<clipPath id="SVGID_00000057116742139351176030000005904584109323319426_">
				<use xlink:href="#SVGID_00000127024725869551720420000012239401733997052332_"  style="overflow:visible;"/>
			</clipPath>
			<path style="clip-path:url(#SVGID_00000057116742139351176030000005904584109323319426_);fill:#D1E7EE;" d="M313.6,286.4
				c0.2-0.1-4.2,6.3-3.2,11.2c1.1,5,8.6,11.6,12.6,14s9.5,2.7,9.5,2.7s3.4-0.1,7.8-5.2c4.4-5.1,8.8-10.1,8.9-13.4
				c0.1-3.3-1-8.7-2.7-10.3c0,0,4.5,2.7,6,7.1s-0.9,15.7-5.8,22.5c-5,6.7-13.1,10.8-13.1,10.8s-10.8-2.5-15.9-7.1
				s-12.2-14.3-11.9-19.9S309.3,288.2,313.6,286.4z"/>
			
				<use xlink:href="#SVGID_00000127024725869551720420000012239401733997052332_"  style="overflow:visible;fill:none;stroke:#000000;stroke-width:0.5;stroke-miterlimit:10;"/>
		</g>
		<g>
			<defs>
				<path id="SVGID_00000062892742947764028660000009950497100765868205_" d="M388.9,319.8c0.5,0.2,14.1,8.1,24.5,20.8
					c0,0,8.2-1.4,12.6-5.1c4.4-3.7,7.8-11.9,5.3-16.9c-2.5-5.1-21.1-20.3-26.2-19.9c-5.1,0.4-11.6,3.8-14,11.4
					C388.7,317.7,388.9,319.8,388.9,319.8z"/>
			</defs>
			<clipPath id="SVGID_00000142140336138361278610000016522586051657170562_">
				<use xlink:href="#SVGID_00000062892742947764028660000009950497100765868205_"  style="overflow:visible;"/>
			</clipPath>
			<g style="clip-path:url(#SVGID_00000142140336138361278610000016522586051657170562_);">
				<defs>
					<path id="SVGID_00000143576883682437379930000005400860914308075412_" d="M413.6,315c0,0,1.5-14.2-11.2-12.9
						c-13.9,1.4-13.6,25.8-6.3,32.5c7.4,5.8,33.1,3,32.2-10.8C427.5,311.3,413.6,315,413.6,315z"/>
				</defs>
				<use xlink:href="#SVGID_00000143576883682437379930000005400860914308075412_"  style="overflow:visible;fill:#E9945B;"/>
				<clipPath id="SVGID_00000065780784729765661500000010087715533405558170_">
					<use xlink:href="#SVGID_00000143576883682437379930000005400860914308075412_"  style="overflow:visible;"/>
				</clipPath>
				<path style="clip-path:url(#SVGID_00000065780784729765661500000010087715533405558170_);fill:#D1E7EE;" d="M400.3,301.2
					c0.9-0.3-4.9,6.1-5.4,13.1c-0.5,7,1.1,13.3,2.7,15s8.7,5.2,13.5,5.3c4.9,0.1,12.9-3,15.5-6.7c2.5-3.7,3.5-5.9,3.5-5.9
					s-4.7,13.7-7.2,15.2c-2.5,1.5-15.9,6.6-19.7,6.3c-3.7-0.4-15.7-9.9-16.3-11.2s-0.7-13,1.4-18.1S397.8,302,400.3,301.2z"/>
				
					<use xlink:href="#SVGID_00000143576883682437379930000005400860914308075412_"  style="overflow:visible;fill:none;stroke:#231815;stroke-width:0.5;stroke-miterlimit:10;"/>
			</g>
		</g>
		<path class="st82" d="M389.4,319.6c0.3,0.1,19.2,13.6,24.2,21.4"/>
		<g>
			<defs>
				<path id="SVGID_00000063622597458928740840000000671314429043131277_" d="M316,303.7c0,0,5.7,0,8.5,2.6
					c2.8,2.6,4.3,8.1,4.7,11.6s0,6.2,0,6.2s-12.5,7.4-14.7,10c0,0-9.4-0.5-12.6-3.7c-3.2-3.2-5-7.2-3.3-10.7
					c1.7-3.5,8.1-6.3,10.2-5.4C308.7,314.2,310.8,303.6,316,303.7z"/>
			</defs>
			<clipPath id="SVGID_00000083063422659484936430000014403051443957725329_">
				<use xlink:href="#SVGID_00000063622597458928740840000000671314429043131277_"  style="overflow:visible;"/>
			</clipPath>
			<g style="clip-path:url(#SVGID_00000083063422659484936430000014403051443957725329_);">
				<defs>
					<path id="SVGID_00000095300164718106594030000002103100966719578497_" d="M310.7,316.2c0,0-1.1-10.8,8.5-9.8
						c10.5,1.1,10.3,19.5,4.8,24.7c-5.6,4.4-25.1,2.3-24.4-8.2C300.1,313.3,310.7,316.2,310.7,316.2z"/>
				</defs>
				<use xlink:href="#SVGID_00000095300164718106594030000002103100966719578497_"  style="overflow:visible;fill:#E9945B;"/>
				<clipPath id="SVGID_00000035521007906745172850000015027682828429836436_">
					<use xlink:href="#SVGID_00000095300164718106594030000002103100966719578497_"  style="overflow:visible;"/>
				</clipPath>
				<path style="clip-path:url(#SVGID_00000035521007906745172850000015027682828429836436_);fill:#D1E7EE;" d="M316.7,305.9
					c-0.5,0.1,6.2,1.9,7.5,6.3c1.3,4.4,1.1,9.2,0.7,11.8c-0.4,2.6-2.2,5.4-2.2,5.4s-5.8,1.6-9.7,1.3c-3.9-0.4-11.6-1.3-14.4-9.2
					c-0.6,0.1-0.3,8.1,5.9,11.3c6.2,3.2,17.8,1.4,21.3,0.9c0,0,4-6.3,3.7-12.7S326,304.1,316.7,305.9z"/>
				
					<use xlink:href="#SVGID_00000095300164718106594030000002103100966719578497_"  style="overflow:visible;fill:none;stroke:#231815;stroke-width:0.5;stroke-miterlimit:10;"/>
			</g>
		</g>
		<g>
			<defs>
				<path id="SVGID_00000100360026485205384990000008179522065170592944_" d="M358.8,296.9c0,0.2-8-8.6-15.3-2.3
					c-7.2,6.2-3.8,11.4-2.9,13.7s6.8,10.6,6.8,10.6s14.6-0.8,21.1,0.8c0,0,8.9-9.1,9.8-14s-2.3-12.6-7.6-13.5
					C364,291.2,358.9,296.1,358.8,296.9z"/>
			</defs>
			<clipPath id="SVGID_00000183223877578473118530000002069872376622698143_">
				<use xlink:href="#SVGID_00000100360026485205384990000008179522065170592944_"  style="overflow:visible;"/>
			</clipPath>
			<g style="clip-path:url(#SVGID_00000183223877578473118530000002069872376622698143_);">
				<defs>
					<path id="SVGID_00000152264161667385692060000008215221183764642229_" d="M358.7,299.2c0,0,7.4-10.7,15.5-2.5
						c8.8,9.1-5.9,25.8-15,26.3c-8.6-0.3-24.8-17.2-16-26.3C351.2,288.4,358.7,299.2,358.7,299.2z"/>
				</defs>
				<use xlink:href="#SVGID_00000152264161667385692060000008215221183764642229_"  style="overflow:visible;fill:#E9945B;"/>
				<clipPath id="SVGID_00000053544559501190016980000013825716012687536017_">
					<use xlink:href="#SVGID_00000152264161667385692060000008215221183764642229_"  style="overflow:visible;"/>
				</clipPath>
				<path style="clip-path:url(#SVGID_00000053544559501190016980000013825716012687536017_);fill:#D1E7EE;" d="M345,294.5
					c0.2-0.1-3,5.6-2.3,9.5c0.7,3.9,7.1,13,15.4,14.5c0,0,13.8-4.2,16.1-12.6s-0.4-10.6-0.7-11.4c-0.3-0.8,4.6,1.6,5,7.8
					s-7.8,17.6-11.3,20.5c-3.5,2.9-8.2,4.4-8.3,4.5c-0.1,0.1-9.7-4.5-13.4-9.6c-3.7-5.1-6.3-9.3-5.9-14S340.6,295.9,345,294.5z"/>
				
					<use xlink:href="#SVGID_00000152264161667385692060000008215221183764642229_"  style="overflow:visible;fill:none;stroke:#231815;stroke-width:0.5;stroke-miterlimit:10;"/>
			</g>
		</g>
		<path class="st82" d="M396.2,333.2c-7.3-6.5-20.9-15-42.1-14.6c-21.1,0-34.9,10.6-41.2,16.9"/>
	</g>
</g>
</svg>
