<svg version="1.1" id="레이어_1" xmlns="http://www.w3.org/2000/svg" xmlns:xlink="http://www.w3.org/1999/xlink" x="0" y="0" viewBox="0 0 500 500" style="enable-background:new 0 0 500 500" xml:space="preserve"><style>.st0{fill:#fff}.st1{display:none}.st2{display:inline}.st6{fill:#927647}.st11{fill:#d97c8f}.st12{fill:#9c2124}.st13{opacity:.44;fill:#fff;enable-background:new}.st14{fill:#e78c27}.st20{stroke-linecap:round;stroke-linejoin:round;stroke-miterlimit:10}.st20,.st21,.st25,.st26{fill:none;stroke:#040000}.st21{stroke-linecap:round;stroke-linejoin:round}.st25,.st26{stroke-miterlimit:10}.st26{fill:#fff;stroke-linecap:round;stroke-linejoin:round}.st27{fill:#040000}.st28,.st32{fill:none;stroke-miterlimit:10}.st28{stroke:#040000;stroke-linecap:round}.st32{display:inline;stroke:#db4b25}.st33,.st35,.st38{display:inline;fill:#3a76b3}.st35,.st38{fill:none;stroke:#040000;stroke-linecap:round;stroke-linejoin:round;stroke-miterlimit:10}.st38{stroke:#db4b25}.st39,.st40{stroke:#040000}.st39{display:inline;fill:none;stroke-miterlimit:10}.st40{stroke-linecap:round;stroke-linejoin:round;stroke-miterlimit:9.9991}.st40,.st41{display:inline;fill:#fff}.st43,.st45,.st46{display:inline;fill:#040000}.st45,.st46{fill:#fff;stroke:#2c2a29;stroke-miterlimit:10}.st46{fill:none;stroke:#fff}.st47,.st49{display:inline;fill:#2c2a29}.st49{fill:#fff;stroke:#040000;stroke-miterlimit:10}.st50,.st53,.st56{display:inline;fill:#829bc9}.st53,.st56{fill:#fff;stroke:#040000;stroke-miterlimit:9.9997}.st56{fill:#bcbcbc;stroke-miterlimit:10}.st57{fill:#009fe8}.st58{fill:#833690}.st59{fill:#6fb62d}.st60{fill:#f29018}.st61,.st62{fill:#c77aaf;stroke:#231815;stroke-width:.5;stroke-miterlimit:10}.st62{fill:#fffdf5}.st63{fill:#aebcc3}.st65{fill:none;stroke:#a3d9ed;stroke-width:.5;stroke-miterlimit:10}.st71{fill:#231815}.st82{fill:#f7f3b5;stroke:#231815;stroke-width:.5;stroke-miterlimit:10}</style><circle class="st0" cx="250" cy="250" r="247.5"/><path class="st58" d="M153.6 127.8c0 21.4-17.4 38.8-38.8 38.8S76 149.2 76 127.8 93.4 89 114.8 89c21.5 0 38.8 17.4 38.8 38.8z"/><path class="st58" d="M109.1 253.3h104.4s22-4.8 22-25.9V57s-4.8-39.3-30.6-39.3c0 0-28.7 1-28.7 45v87.1s0 40.2-36.4 40.2l-30.6-1s-33 6.7-33 32.6c-.1.1-.6 31.7 32.9 31.7z"/><path class="st59" d="M384.6 190.8c-21.4 0-38.8-17.4-38.8-38.8s17.4-38.8 38.8-38.8 38.8 17.4 38.8 38.8-17.3 38.8-38.8 38.8z"/><path class="st59" d="M259.2 146.3v104.4s4.8 22 25.9 22h170.4s39.3-4.8 39.3-30.6c0 0-1-28.7-45-28.7h-87.1s-40.2 0-40.2-36.4l1-30.6s-6.7-33-32.6-33c-.1-.2-31.7-.7-31.7 32.9z"/><path class="st60" d="M124.2 359.8c21.4 0 38.8 17.4 38.8 38.8s-17.4 38.8-38.8 38.8-38.8-17.4-38.8-38.8c0-21.5 17.4-38.8 38.8-38.8z"/><path class="st60" d="M249.6 404.3V299.9s-4.8-22-25.9-22H53.3S14 282.7 14 308.5c0 0 1 28.7 45 28.7h87.1s40.2 0 40.2 36.4l-1 30.6s6.7 33 32.6 33c.1.1 31.7.6 31.7-32.9z"/><g id="왼쪽귀_00000173869848999201509740000010944503480761770627_"><path class="st61" d="M294.5 385.5c.1.3.6 3.4.5 3.7-.2.3-10.4 9.2-15.1 10.6-4.6 1.3-16.1 0-17.9-1-1.8-1-5.1-2.7-3.1-5.1s35.6-8.2 35.6-8.2z"/><path class="st62" d="M270 388.7c-2.3.3-10.2 4.2-11.8 6.2-.1.4 0 .7.2 1.1 1.6 3.3 15.7 7.3 21.8 5.8 6.1-1.5 16-11.4 16-11.4l-.3-3.8c-1.3.9-3.4-4-6.4-2.6-4 2-17.2 4.4-19.5 4.7z"/><path class="st61" d="M294.5 385.5c.1.3.6 3.4.5 3.7-.2.3-10.4 9.2-15.1 10.6-4.6 1.3-16.1 0-17.9-1-1.8-1-5.1-2.7-3.1-5.1s35.6-8.2 35.6-8.2z"/><path class="st63" d="M266.5 389.7c-6.7 2.7-9.3 4.4-7.7 6.9 1.5.4 7.2 1.3 13.3 1 2.3-.1 13.9-1.7 17.9-3.7 2.9-1.4 5.2-4.7 6.5-5.6l-.7-8.1c.1 0-21.7 6.4-29.3 9.5z"/><defs><path id="SVGID_00000113330721447368651030000010360499628965591995_" d="M272.8 386.8c-6.7 2.7-14 5.3-14.6 8.1 1.5.4 7.3 2 13.3 1 2.3-.4 13.5-3.3 17.5-5.2 2.9-1.4 5.6-3.2 6.9-4l-.7-8.1s-14.8 5.2-22.4 8.2z"/></defs><use xlink:href="#SVGID_00000113330721447368651030000010360499628965591995_" style="overflow:visible;fill:#fffdf5"/><clipPath id="SVGID_00000159443368190014944500000011892628530294047104_"><use xlink:href="#SVGID_00000113330721447368651030000010360499628965591995_" style="overflow:visible"/></clipPath><path style="clip-path:url(#SVGID_00000159443368190014944500000011892628530294047104_);fill:#e5d6c7" d="M278.1 384.6c.1-.1 10.9-1.4 12 7l7.9-4.8-1.7-9.6-12.6 1.4-5.6 6z"/><use xlink:href="#SVGID_00000113330721447368651030000010360499628965591995_" style="overflow:visible;fill:none;stroke:#231815;stroke-width:.5;stroke-miterlimit:10"/><circle class="st65" cx="293" cy="384.2" r="1.6"/><path class="st65" d="M293 385.6v-2.9M291.4 384.2h3.2"/></g><g id="오른귀_00000173848483338429407350000001924259055702801051_"><path class="st61" d="M413.8 385.5c-.1.3-.6 3.4-.5 3.7.2.3 10.4 9.2 15.1 10.6 4.6 1.3 16.1 0 17.9-1 1.8-1 5.1-2.7 3.1-5.1s-35.6-8.2-35.6-8.2z"/><path class="st62" d="M438.3 388.7c2.3.3 10.2 4.2 11.8 6.2.1.4 0 .7-.2 1.1-1.6 3.3-15.7 7.3-21.8 5.8-6.1-1.5-16-11.4-16-11.4l.3-3.8c1.3.9 3.4-4 6.4-2.6 4 2 17.2 4.4 19.5 4.7z"/><path class="st61" d="M413.8 385.5c-.1.3-.6 3.4-.5 3.7.2.3 10.4 9.2 15.1 10.6 4.6 1.3 16.1 0 17.9-1 1.8-1 5.1-2.7 3.1-5.1s-35.6-8.2-35.6-8.2z"/><path class="st63" d="M435.4 388.4c6.7 2.7 16 4.5 14.6 8.1-1.5.4-7.3 2-13.3 1-2.3-.4-13.8-1.8-17.8-3.7-2.9-1.4-5.3-4.7-6.6-5.6l.7-8.1s14.8 5.2 22.4 8.3z"/><defs><path id="SVGID_00000026152777934936321830000006101631559066369691_" d="M435.5 386.8c6.7 2.7 14 5.3 14.6 8.1-1.5.4-7.3 2-13.3 1-2.3-.4-13.5-3.3-17.5-5.2-2.9-1.4-5.6-3.2-6.9-4l.7-8.1s14.9 5.2 22.4 8.2z"/></defs><use xlink:href="#SVGID_00000026152777934936321830000006101631559066369691_" style="overflow:visible;fill:#fffdf5"/><clipPath id="SVGID_00000088835119774868752250000006976918435538533264_"><use xlink:href="#SVGID_00000026152777934936321830000006101631559066369691_" style="overflow:visible"/></clipPath><path style="clip-path:url(#SVGID_00000088835119774868752250000006976918435538533264_);fill:#e5d6c7" d="M430.5 384.9c-.1-.1-10.9-1.4-12 7l-7.9-4.8 1.7-9.6 12.6 1.4 5.6 6z"/><use xlink:href="#SVGID_00000026152777934936321830000006101631559066369691_" style="overflow:visible;fill:none;stroke:#231815;stroke-width:.5;stroke-miterlimit:10"/><circle class="st65" cx="415.3" cy="384.2" r="1.6"/><path class="st65" d="M415.3 385.6v-2.9M416.9 384.2h-3.2"/></g><defs><path id="SVGID_00000137842045002547428350000002522141607180860581_" d="M410 340.7c7.4 14.3 8.1 29.2 8.1 31.6 0 7 3.5 19.4 1.5 25.8-1.2 3.8-3.4 8.9-6.4 11.1-3.2 2.4-4.8 1.7-7 2.6 0 0-.3 4.5-2.6 6.5-2.2 1.8-11.5 8.5-19.1 4.7-7.6 3.3-18.7 4.2-30.3 1.1-11.7 3.2-22.8 2.2-30.3-1.1-7.6 3.8-16.9-2.9-19.1-4.7-2.3-2-2.6-6.5-2.6-6.5-2.1-.9-3.8-.3-7-2.6-3-2.2-5.2-7.3-6.4-11.1-2-6.4 1.5-18.8 1.5-25.8 0-2.4.7-17.3 8.1-31.6 20.9-23.6 101.6-22.1 111.6 0z"/></defs><use xlink:href="#SVGID_00000137842045002547428350000002522141607180860581_" style="overflow:visible;fill:#f7f3b5"/><clipPath id="SVGID_00000018228592224870274140000014777869779359847080_"><use xlink:href="#SVGID_00000137842045002547428350000002522141607180860581_" style="overflow:visible"/></clipPath><path style="clip-path:url(#SVGID_00000018228592224870274140000014777869779359847080_);fill:#d3cea3" d="M413.3 369.1c.2 1.5-11.2 3.2-7.1 20.9 1.1 4.9.9 13-.6 17.5s-4.8 13.6-10.2 16.7c-5.5 3.1-9.2-1-18.4-.9-9.2.1-51.1-.9-51.1-.9s-7.1 3.8-9.9 3.1c-7.4-2-13.7-16-15.7-20.1-2-4.2-1.6-15.4-1.1-20.2 1.5-14.8-8.5-20.8-8.5-20.8s15.9-22.6 62.8-21.4 59.8 26.1 59.8 26.1z"/><use xlink:href="#SVGID_00000137842045002547428350000002522141607180860581_" style="overflow:visible;fill:none;stroke:#231815;stroke-width:.5;stroke-miterlimit:10"/><g id="얼굴_00000071534547875018227050000005746749857223542916_"><defs><path id="SVGID_00000171721615338128639440000002960356061337993345_" d="M354.2 429.9c14.3 0 37-6.2 45-19.7.5-.8 1.8-2.6 1.8-3.4 0-.8-1.4-.7-1.6-1.6-.1-.6 1.3-1.9 1.2-2.5-.3-1.2-1.8-2-1.9-3.5-.1-1.4.4-8.6.5-10.1.4-5.7-.9-8.4-.9-13.1 0-21.6-19.8-39-44.2-39-24.4 0-44.2 17.5-44.2 39 0 4.6-1.3 7.3-.9 13.1.1 1.5.6 8.7.5 10.1-.1 1.5-1.6 2.2-1.9 3.5-.1.6 1.3 1.9 1.2 2.5-.2.9-1.6.7-1.6 1.6 0 .8 1.3 2.6 1.8 3.4 8.2 13.5 30.8 19.7 45.2 19.7z"/></defs><use xlink:href="#SVGID_00000171721615338128639440000002960356061337993345_" style="overflow:visible;fill:#fffdf5"/><clipPath id="SVGID_00000092452699496737976620000000811485318125101449_"><use xlink:href="#SVGID_00000171721615338128639440000002960356061337993345_" style="overflow:visible"/></clipPath><path style="clip-path:url(#SVGID_00000092452699496737976620000000811485318125101449_);fill:#e5d6c7" d="M400.1 366.8s-15.4-4.6-22.3-1.9-6.1 5.9-6.1 5.9c.5-.1 18.9 2.1 22.5 8.3 3.6 6.2 3.9 20.6 2.1 26.1-1.8 5.5-5.9 9.2-9.2 12.3-3.2 3-13.8 10.7-32.6 11.2v-.1c-19.4-.2-30-8-33.2-11.1s-7.7-5.9-9.5-11.5c-1.8-5.5-1.3-21.5 2.3-27.8 3.6-6.2 22.1-7.7 22.6-7.5 0 0 .7-3.2-6.1-5.9-6.9-2.7-22.3 1.9-22.3 1.9s-9.7 21.2-3.2 40c6.5 18.7 48.3 25 48.8 24.9.5.1 43-6.2 49.5-24.9 6.4-18.7-3.3-39.9-3.3-39.9z"/><path style="clip-path:url(#SVGID_00000092452699496737976620000000811485318125101449_);fill:#e5d6c7" d="M371.6 404.1c-1.1-.6-2.4-.9-3.6-1-4.6-.7-9.2-.9-13.8-.8-4.6-.1-9.2.2-13.8.8-1.2.2-2.5.4-3.6 1-.5.3-1 1-.6 1.5.2.2.4.2.6.3.8.1 1.7 0 2.5-.2 4.9-.8 9.9-1.5 14.9-1.7 5 .2 10 1 14.9 1.7.8.1 1.7.3 2.5.2.2 0 .5-.1.6-.3.4-.5-.1-1.2-.6-1.5z"/><use xlink:href="#SVGID_00000171721615338128639440000002960356061337993345_" style="overflow:visible;fill:none;stroke:#231815;stroke-width:.5;stroke-miterlimit:10"/></g><g id="눈코입_00000127027985314821189720000004275954581118539943_"><defs><path id="SVGID_00000045609560992437327290000000763100389749541545_" d="M322.3 389.7c.1-.1 5-2.9 8.8-2.3 3.8.6 9.4 3.3 10.5 4.5 1.1 1.1 1.1 1.2 1.6 1.7s1.9 6.6 1 7.3c-.9.6-9.7 1.9-12.6 1.5s-9-3.4-9.7-9.7c.1 0-.2-2.2.4-3z"/></defs><clipPath id="SVGID_00000138569603639463309490000017321953942932330368_"><use xlink:href="#SVGID_00000045609560992437327290000000763100389749541545_" style="overflow:visible"/></clipPath><g style="clip-path:url(#SVGID_00000138569603639463309490000017321953942932330368_)"><defs><ellipse id="SVGID_00000139996663803381751320000002643479907176149133_" cx="334.5" cy="393.9" rx="6.1" ry="8"/></defs><clipPath id="SVGID_00000176023244247005858540000007049067566624291741_"><use xlink:href="#SVGID_00000139996663803381751320000002643479907176149133_" style="overflow:visible"/></clipPath><ellipse style="clip-path:url(#SVGID_00000176023244247005858540000007049067566624291741_);fill:#231815;stroke:#231815;stroke-width:.5;stroke-miterlimit:10" cx="335.2" cy="392" rx="7" ry="6.9"/><use xlink:href="#SVGID_00000139996663803381751320000002643479907176149133_" style="overflow:visible;fill:none;stroke:#231815;stroke-width:.5;stroke-miterlimit:10"/></g><path class="st71" d="M342.6 392.3s-1.9-2.6-6.2-4.1c-4.3-1.6-7.8-2-10.4-1.3-2.7.7-4.5 1.3-4.8 2.6-.3 1.2.6 4.5 1.3 5.6 0 0-.2-3.2 0-4.3 0 0 3.7-2.9 6.8-2.6 3.1.3 8.8 2 10.4 3 1.6.9 3 1.9 3 1.9l-.1-.8z"/><path class="st71" d="M335.9 386.1s-.7 1.3-.6 2.2c.1 0 1.2.5 1.2.5s-.8-1.8-.6-2.7zM329.2 384.5s0 2.1.5 2.6l-1.3-.1c0 .1.1-1.8.8-2.5zM324.8 385.8c0-.1.6 1.3 1.2 1.7l-1.3.4s-.2-1.3.1-2.1z"/><ellipse transform="rotate(-20.793 334.42 390.8)" class="st0" cx="334.5" cy="390.8" rx="1.5" ry="1.6"/><path d="M354.2 409.6c1.3-.4 3.4-2 4.5-2.9.4-.3.3-1-.2-1.1-1.6-.4-4.3-.4-4.3-.4s-2.7 0-4.3.4c-.5.1-.6.8-.2 1.1 1 .9 3.1 2.4 4.5 2.9z" style="fill:#edb0ce;stroke:#231815;stroke-width:.5;stroke-miterlimit:10"/><path class="st71" d="M354.2 412.4c-1.9 2-6.8-.4-6.8-.4 1.6 2.7 6.8 2.1 6.8 2.1s5.2.6 6.8-2.1c0-.1-4.9 2.4-6.8.4z"/><path class="st71" d="M348 411.2c-.1 0-.8.1-1.2.6-.4.4-.7 1.1-.3 1 .4-.1.9-.5 1.2-.8.4-.4.7-.9.3-.8zM359.8 411.2c.1 0 .8.1 1.2.6.4.4.7 1.1.3 1-.4-.1-.9-.5-1.2-.8-.4-.4-.6-.9-.3-.8zM341.5 382.3s-6.5-3.8-10.5-3.7l10.5 3.7z"/><defs><path id="SVGID_00000022539577795689339300000006348300878313060534_" d="M386 389.7c-.1-.1-5-2.9-8.8-2.3-3.8.6-9.4 3.3-10.5 4.5-1.1 1.1-1.1 1.2-1.6 1.7s-1.9 6.6-1 7.3c.9.6 9.7 1.9 12.6 1.5s9-3.4 9.7-9.7c-.1 0 .2-2.2-.4-3z"/></defs><clipPath id="SVGID_00000101095433516135787610000003275770458913528475_"><use xlink:href="#SVGID_00000022539577795689339300000006348300878313060534_" style="overflow:visible"/></clipPath><g style="clip-path:url(#SVGID_00000101095433516135787610000003275770458913528475_)"><defs><ellipse id="SVGID_00000052819823765042307570000015988774436889410949_" cx="373.8" cy="393.9" rx="6.1" ry="8"/></defs><clipPath id="SVGID_00000176039513610814266420000002918863252689852084_"><use xlink:href="#SVGID_00000052819823765042307570000015988774436889410949_" style="overflow:visible"/></clipPath><ellipse style="clip-path:url(#SVGID_00000176039513610814266420000002918863252689852084_);fill:#231815;stroke:#231815;stroke-width:.5;stroke-miterlimit:10" cx="373.1" cy="392" rx="7" ry="6.9"/><use xlink:href="#SVGID_00000052819823765042307570000015988774436889410949_" style="overflow:visible;fill:none;stroke:#231815;stroke-width:.5;stroke-miterlimit:10"/></g><path class="st71" d="M365.7 392.3s1.9-2.6 6.2-4.1c4.3-1.6 7.8-2 10.4-1.3 2.7.7 4.5 1.3 4.8 2.6.3 1.2-.6 4.5-1.3 5.6 0 0 .2-3.2 0-4.3 0 0-3.7-2.9-6.8-2.6-3.1.3-8.8 2-10.4 3-1.6.9-3 1.9-3 1.9l.1-.8z"/><path class="st71" d="M372.4 386.1s.7 1.3.6 2.2c-.1 0-1.2.5-1.2.5s.8-1.8.6-2.7zM379.1 384.5s0 2.1-.5 2.6l1.3-.1c0 .1-.1-1.8-.8-2.5z"/><ellipse transform="rotate(-69.207 373.845 390.839)" class="st0" cx="373.8" cy="390.8" rx="1.6" ry="1.5"/><path class="st71" d="M366.8 382.3s6.5-3.8 10.5-3.7l-10.5 3.7z"/></g><defs><path id="SVGID_00000093856696969782909460000002838238164073342644_" d="M296.5 307.6s5.6-1.1 8.9.9 5.8 7.1 6.9 10.4c1.1 3.3 1.2 6.1 1.2 6.1s-10.8 9.6-12.5 12.6c0 0-9.3 1.3-13.1-1.3-3.8-2.6-6.4-6.1-5.4-9.9s6.8-7.7 9-7.2c0 .1-.1-10.7 5-11.6z"/></defs><clipPath id="SVGID_00000121249834295423718980000002032995317332547210_"><use xlink:href="#SVGID_00000093856696969782909460000002838238164073342644_" style="overflow:visible"/></clipPath><g style="clip-path:url(#SVGID_00000121249834295423718980000002032995317332547210_)"><defs><path id="SVGID_00000088850412110914222700000003862599933043826561_" d="M293.7 320.8s-3.2-10.3 6.4-11.2c10.5-1 14 17.2 9.5 23.3-4.7 5.4-24.2 7-25.6-3.3-1.2-9.6 9.7-8.8 9.7-8.8z"/></defs><use xlink:href="#SVGID_00000088850412110914222700000003862599933043826561_" style="overflow:visible;fill:#9780af"/><clipPath id="SVGID_00000045577352402636712780000008653051895656144819_"><use xlink:href="#SVGID_00000088850412110914222700000003862599933043826561_" style="overflow:visible"/></clipPath><path style="clip-path:url(#SVGID_00000045577352402636712780000008653051895656144819_);fill:#d1e7ee" d="M297.6 309.6c-.5.2 6.4.7 8.6 4.7 2.1 4.1 2.9 8.8 3 11.4.1 2.6-1.1 5.8-1.1 5.8s-5.4 2.7-9.2 3.1c-3.9.4-11.7 1-16-6.3-.6.2 1.3 8 8 9.9 6.7 1.9 17.7-2 21-3.2 0 0 2.7-7 1.1-13.1s-6.6-15.8-15.4-12.3z"/><use xlink:href="#SVGID_00000088850412110914222700000003862599933043826561_" style="overflow:visible;fill:none;stroke:#231815;stroke-width:.5;stroke-miterlimit:10"/></g><defs><path id="SVGID_00000055701387890963656160000002205041610938192561_" d="M395.5 307.7s1.2-11.8-9.3-10.7c-11.5 1.2-11.3 21.3-5.2 26.9 6.1 4.8 27.4 2.5 26.7-8.9-.7-10.5-12.2-7.3-12.2-7.3z"/></defs><use xlink:href="#SVGID_00000055701387890963656160000002205041610938192561_" style="overflow:visible;fill:#9780af"/><clipPath id="SVGID_00000062154311698398131990000000216894328036076187_"><use xlink:href="#SVGID_00000055701387890963656160000002205041610938192561_" style="overflow:visible"/></clipPath><path style="clip-path:url(#SVGID_00000062154311698398131990000000216894328036076187_);fill:#d1e7ee" d="M384.1 296.4c.5-.1-3.5 5.6-4 9.8s1.1 13.3 2.3 15.9c0 0 14.1 1.2 19.7-2.4 5.6-3.5 6.8-6.5 6.8-8.2 0 0 .2 7.5-2.8 11.3-3 3.8-24 6.9-26.1 6-2.1-.9-6.1-14.4-5.3-20.6.8-6.2 4.3-10.5 9.4-11.8z"/><use xlink:href="#SVGID_00000055701387890963656160000002205041610938192561_" style="overflow:visible;fill:none;stroke:#231815;stroke-width:.5;stroke-miterlimit:10"/><defs><path id="SVGID_00000012435579956566356960000002928791878866757766_" d="M355.4 370c9.2 7.9 19.5-1.5 19.5-1.5 16.6 8.6 27.1 3.7 27.1 3.7.9-1.2 18.5 9.3 24.3-4.7 4.2-10-2.8-16.4-5.9-18.1-1.9-4-2.3-7.1-5.4-11.9-11.6-18.9-38.7-25.9-59.6-25.5-21 .4-46.6 8.4-57.4 27.6-3.3.5-7.1 4.7-9 8.7-1.1 2.4-2.4 5.8-1.2 10.5.8 3.2 3.5 6.2 4.3 7.4 0 0 14.2 16.4 36 3.2 0 0 8.1 7.3 26.5.7h.8z"/></defs><use xlink:href="#SVGID_00000012435579956566356960000002928791878866757766_" style="overflow:visible;fill:#f7f3b5"/><clipPath id="SVGID_00000003788067392922058230000003282987648571206308_"><use xlink:href="#SVGID_00000012435579956566356960000002928791878866757766_" style="overflow:visible"/></clipPath><path style="clip-path:url(#SVGID_00000003788067392922058230000003282987648571206308_);fill:#dbdbd9" d="M403.9 324.9s11.6 14.6 14 24.2c0 0 6.3 2.9 6.8 9.2s-2.7 10.3-6.8 11.1c-4.1.8-13.8-.2-15.9-6.4 0 0-2.9 6.8-8.7 7.2s-16.8-7.2-17.2-7.7c-.4-.5-5.9 7.1-11.3 7.1s-9.1-7.2-9.1-7.2-4.4 6.4-14.4 6.6c-7.6.1-11.8-6.5-11.8-6.5s-15.5 14.1-30.5 4.8c-8.5-5.2-8-14.2-7.4-16.5 1.3-4.4 2.7-7.6 8.6-9.4 0 0 3.3-7.8 10.8-15.6 0 0-15.4 4.5-21.2 16.4s-5.2 13.8-3.6 18 5.1 12 14.7 14.5c9.5 2.5 20.4 2.4 27.2-1.1 0 0 18.9 5.1 26.9-.4 0 0 11.6 4.6 20-.5 0 0 20.1 7.5 28.3 1.9 0 0 15.9 6.2 23.2-3.5s3.3-19.6-3.8-23.3c-.2.2-8.5-19.8-18.8-22.9z"/><use xlink:href="#SVGID_00000012435579956566356960000002928791878866757766_" style="overflow:visible;fill:none;stroke:#231815;stroke-width:.5;stroke-miterlimit:10"/><defs><path id="SVGID_00000127024725869551720420000012239401733997052332_" d="M329.5 292.3s9.4-13 19-3.2c10.4 10.8-7.6 31-18.4 31.5-10.2-.4-29.4-20.4-18.9-31.2 9.5-9.9 18.3 2.9 18.3 2.9z"/></defs><use xlink:href="#SVGID_00000127024725869551720420000012239401733997052332_" style="overflow:visible;fill:#9780af"/><clipPath id="SVGID_00000057116742139351176030000005904584109323319426_"><use xlink:href="#SVGID_00000127024725869551720420000012239401733997052332_" style="overflow:visible"/></clipPath><path style="clip-path:url(#SVGID_00000057116742139351176030000005904584109323319426_);fill:#d1e7ee" d="M313.6 286.4c.2-.1-4.2 6.3-3.2 11.2 1.1 5 8.6 11.6 12.6 14s9.5 2.7 9.5 2.7 3.4-.1 7.8-5.2c4.4-5.1 8.8-10.1 8.9-13.4.1-3.3-1-8.7-2.7-10.3 0 0 4.5 2.7 6 7.1s-.9 15.7-5.8 22.5c-5 6.7-13.1 10.8-13.1 10.8s-10.8-2.5-15.9-7.1-12.2-14.3-11.9-19.9 3.5-10.6 7.8-12.4z"/><use xlink:href="#SVGID_00000127024725869551720420000012239401733997052332_" style="overflow:visible;fill:none;stroke:#000;stroke-width:.5;stroke-miterlimit:10"/><defs><path id="SVGID_00000062892742947764028660000009950497100765868205_" d="M388.9 319.8c.5.2 14.1 8.1 24.5 20.8 0 0 8.2-1.4 12.6-5.1 4.4-3.7 7.8-11.9 5.3-16.9-2.5-5.1-21.1-20.3-26.2-19.9-5.1.4-11.6 3.8-14 11.4-2.4 7.6-2.2 9.7-2.2 9.7z"/></defs><clipPath id="SVGID_00000142140336138361278610000016522586051657170562_"><use xlink:href="#SVGID_00000062892742947764028660000009950497100765868205_" style="overflow:visible"/></clipPath><g style="clip-path:url(#SVGID_00000142140336138361278610000016522586051657170562_)"><defs><path id="SVGID_00000143576883682437379930000005400860914308075412_" d="M413.6 315s1.5-14.2-11.2-12.9c-13.9 1.4-13.6 25.8-6.3 32.5 7.4 5.8 33.1 3 32.2-10.8-.8-12.5-14.7-8.8-14.7-8.8z"/></defs><use xlink:href="#SVGID_00000143576883682437379930000005400860914308075412_" style="overflow:visible;fill:#e9945b"/><clipPath id="SVGID_00000065780784729765661500000010087715533405558170_"><use xlink:href="#SVGID_00000143576883682437379930000005400860914308075412_" style="overflow:visible"/></clipPath><path style="clip-path:url(#SVGID_00000065780784729765661500000010087715533405558170_);fill:#d1e7ee" d="M400.3 301.2c.9-.3-4.9 6.1-5.4 13.1s1.1 13.3 2.7 15 8.7 5.2 13.5 5.3c4.9.1 12.9-3 15.5-6.7 2.5-3.7 3.5-5.9 3.5-5.9s-4.7 13.7-7.2 15.2-15.9 6.6-19.7 6.3c-3.7-.4-15.7-9.9-16.3-11.2s-.7-13 1.4-18.1 9.5-12.2 12-13z"/><use xlink:href="#SVGID_00000143576883682437379930000005400860914308075412_" style="overflow:visible;fill:none;stroke:#231815;stroke-width:.5;stroke-miterlimit:10"/></g><path class="st82" d="M389.4 319.6c.3.1 19.2 13.6 24.2 21.4"/><defs><path id="SVGID_00000063622597458928740840000000671314429043131277_" d="M316 303.7s5.7 0 8.5 2.6 4.3 8.1 4.7 11.6 0 6.2 0 6.2-12.5 7.4-14.7 10c0 0-9.4-.5-12.6-3.7-3.2-3.2-5-7.2-3.3-10.7 1.7-3.5 8.1-6.3 10.2-5.4-.1-.1 2-10.7 7.2-10.6z"/></defs><clipPath id="SVGID_00000083063422659484936430000014403051443957725329_"><use xlink:href="#SVGID_00000063622597458928740840000000671314429043131277_" style="overflow:visible"/></clipPath><g style="clip-path:url(#SVGID_00000083063422659484936430000014403051443957725329_)"><defs><path id="SVGID_00000095300164718106594030000002103100966719578497_" d="M310.7 316.2s-1.1-10.8 8.5-9.8c10.5 1.1 10.3 19.5 4.8 24.7-5.6 4.4-25.1 2.3-24.4-8.2.5-9.6 11.1-6.7 11.1-6.7z"/></defs><use xlink:href="#SVGID_00000095300164718106594030000002103100966719578497_" style="overflow:visible;fill:#e9945b"/><clipPath id="SVGID_00000035521007906745172850000015027682828429836436_"><use xlink:href="#SVGID_00000095300164718106594030000002103100966719578497_" style="overflow:visible"/></clipPath><path style="clip-path:url(#SVGID_00000035521007906745172850000015027682828429836436_);fill:#d1e7ee" d="M316.7 305.9c-.5.1 6.2 1.9 7.5 6.3 1.3 4.4 1.1 9.2.7 11.8-.4 2.6-2.2 5.4-2.2 5.4s-5.8 1.6-9.7 1.3c-3.9-.4-11.6-1.3-14.4-9.2-.6.1-.3 8.1 5.9 11.3 6.2 3.2 17.8 1.4 21.3.9 0 0 4-6.3 3.7-12.7s-3.5-16.9-12.8-15.1z"/><use xlink:href="#SVGID_00000095300164718106594030000002103100966719578497_" style="overflow:visible;fill:none;stroke:#231815;stroke-width:.5;stroke-miterlimit:10"/></g><defs><path id="SVGID_00000100360026485205384990000008179522065170592944_" d="M358.8 296.9c0 .2-8-8.6-15.3-2.3-7.2 6.2-3.8 11.4-2.9 13.7s6.8 10.6 6.8 10.6 14.6-.8 21.1.8c0 0 8.9-9.1 9.8-14s-2.3-12.6-7.6-13.5c-6.7-1-11.8 3.9-11.9 4.7z"/></defs><clipPath id="SVGID_00000183223877578473118530000002069872376622698143_"><use xlink:href="#SVGID_00000100360026485205384990000008179522065170592944_" style="overflow:visible"/></clipPath><g style="clip-path:url(#SVGID_00000183223877578473118530000002069872376622698143_)"><defs><path id="SVGID_00000152264161667385692060000008215221183764642229_" d="M358.7 299.2s7.4-10.7 15.5-2.5c8.8 9.1-5.9 25.8-15 26.3-8.6-.3-24.8-17.2-16-26.3 8-8.3 15.5 2.5 15.5 2.5z"/></defs><use xlink:href="#SVGID_00000152264161667385692060000008215221183764642229_" style="overflow:visible;fill:#e9945b"/><clipPath id="SVGID_00000053544559501190016980000013825716012687536017_"><use xlink:href="#SVGID_00000152264161667385692060000008215221183764642229_" style="overflow:visible"/></clipPath><path style="clip-path:url(#SVGID_00000053544559501190016980000013825716012687536017_);fill:#d1e7ee" d="M345 294.5c.2-.1-3 5.6-2.3 9.5.7 3.9 7.1 13 15.4 14.5 0 0 13.8-4.2 16.1-12.6s-.4-10.6-.7-11.4c-.3-.8 4.6 1.6 5 7.8s-7.8 17.6-11.3 20.5c-3.5 2.9-8.2 4.4-8.3 4.5-.1.1-9.7-4.5-13.4-9.6-3.7-5.1-6.3-9.3-5.9-14s1-7.8 5.4-9.2z"/><use xlink:href="#SVGID_00000152264161667385692060000008215221183764642229_" style="overflow:visible;fill:none;stroke:#231815;stroke-width:.5;stroke-miterlimit:10"/></g><path class="st82" d="M396.2 333.2c-7.3-6.5-20.9-15-42.1-14.6-21.1 0-34.9 10.6-41.2 16.9"/></svg>